<?xml version="1.0" encoding="UTF-8" standalone="no"?>
<!DOCTYPE svg PUBLIC "-//W3C//DTD SVG 1.1//EN"
 "http://www.w3.org/Graphics/SVG/1.1/DTD/svg11.dtd">
<!-- Generated by graphviz version 2.40.1 (20161225.0304)
 -->
<!-- Title: %0 Pages: 1 -->
<svg width="578pt" height="1494pt"
 viewBox="0.00 0.00 578.00 1494.00" xmlns="http://www.w3.org/2000/svg" xmlns:xlink="http://www.w3.org/1999/xlink">
<g id="graph0" class="graph" transform="scale(1 1) rotate(0) translate(4 1490)">
<title>%0</title>
<g id="a_graph0"><a xlink:title="ERD">
<polygon fill="#ffffff" stroke="transparent" points="-4,4 -4,-1490 574,-1490 574,4 -4,4"/>
</a>
</g>
<!-- background -->
<g id="background" class="node">
<title>background</title>
<polygon fill="#efebdd" stroke="transparent" points="228,-1467 228,-1485 288,-1485 288,-1467 228,-1467"/>
<text text-anchor="start" x="229.6758" y="-1472.2" font-family="Times,serif" font-size="12.00" fill="#000000">background</text>
<polygon fill="#ffffff" stroke="transparent" points="228,-1449 228,-1467 288,-1467 288,-1449 228,-1449"/>
<text text-anchor="start" x="230" y="-1454.2" font-family="Times,serif" font-size="12.00" fill="#444444">parm_nm</text>
<polygon fill="#ffffff" stroke="transparent" points="228,-1431 228,-1449 288,-1449 288,-1431 228,-1431"/>
<text text-anchor="start" x="230" y="-1437.2" font-family="Times,serif" text-decoration="underline" font-size="12.00" fill="#444444">pcode</text>
<polygon fill="#ffffff" stroke="transparent" points="228,-1413 228,-1431 288,-1431 288,-1413 228,-1413"/>
<text text-anchor="start" x="230" y="-1418.2" font-family="Times,serif" font-size="12.00" fill="#444444">bkgrd_min</text>
<polygon fill="#ffffff" stroke="transparent" points="228,-1395 228,-1413 288,-1413 288,-1395 228,-1395"/>
<text text-anchor="start" x="230" y="-1400.2" font-family="Times,serif" font-size="12.00" fill="#444444">bkgrd_max</text>
<polygon fill="#ffffff" stroke="transparent" points="228,-1377 228,-1395 288,-1395 288,-1377 228,-1377"/>
<text text-anchor="start" x="230" y="-1382.2" font-family="Times,serif" font-size="12.00" fill="#444444">reference</text>
<polygon fill="none" stroke="#555555" points="227,-1376 227,-1486 289,-1486 289,-1376 227,-1376"/>
</g>
<!-- parameters -->
<g id="parameters" class="node">
<title>parameters</title>
<polygon fill="#efebdd" stroke="transparent" points="371.5,-1121 371.5,-1139 454.5,-1139 454.5,-1121 371.5,-1121"/>
<text text-anchor="start" x="386.6834" y="-1126.2" font-family="Times,serif" font-size="12.00" fill="#000000">parameters</text>
<polygon fill="#ffffff" stroke="transparent" points="371.5,-1103 371.5,-1121 454.5,-1121 454.5,-1103 371.5,-1103"/>
<text text-anchor="start" x="373.5" y="-1109.2" font-family="Times,serif" text-decoration="underline" font-size="12.00" fill="#444444">pcode</text>
<polygon fill="#ffffff" stroke="transparent" points="371.5,-1085 371.5,-1103 454.5,-1103 454.5,-1085 371.5,-1085"/>
<text text-anchor="start" x="373.5" y="-1090.2" font-family="Times,serif" font-size="12.00" fill="#444444">parm_nm</text>
<polygon fill="#ffffff" stroke="transparent" points="371.5,-1067 371.5,-1085 454.5,-1085 454.5,-1067 371.5,-1067"/>
<text text-anchor="start" x="373.007" y="-1072.2" font-family="Times,serif" font-size="12.00" fill="#444444">parm_group_nm</text>
<polygon fill="#ffffff" stroke="transparent" points="371.5,-1049 371.5,-1067 454.5,-1067 454.5,-1049 371.5,-1049"/>
<text text-anchor="start" x="373.5" y="-1054.2" font-family="Times,serif" font-size="12.00" fill="#444444">casrn</text>
<polygon fill="#ffffff" stroke="transparent" points="371.5,-1031 371.5,-1049 454.5,-1049 454.5,-1031 371.5,-1031"/>
<text text-anchor="start" x="373.5" y="-1036.2" font-family="Times,serif" font-size="12.00" fill="#444444">srsname</text>
<polygon fill="#ffffff" stroke="transparent" points="371.5,-1013 371.5,-1031 454.5,-1031 454.5,-1013 371.5,-1013"/>
<text text-anchor="start" x="373.5" y="-1018.2" font-family="Times,serif" font-size="12.00" fill="#444444">unit_cd</text>
<polygon fill="#ffffff" stroke="transparent" points="371.5,-995 371.5,-1013 454.5,-1013 454.5,-995 371.5,-995"/>
<text text-anchor="start" x="373.5" y="-1000.2" font-family="Times,serif" font-size="12.00" fill="#444444">min_dt</text>
<polygon fill="#ffffff" stroke="transparent" points="371.5,-977 371.5,-995 454.5,-995 454.5,-977 371.5,-977"/>
<text text-anchor="start" x="373.5" y="-982.2" font-family="Times,serif" font-size="12.00" fill="#444444">max_dt</text>
<polygon fill="#ffffff" stroke="transparent" points="371.5,-959 371.5,-977 454.5,-977 454.5,-959 371.5,-959"/>
<text text-anchor="start" x="373.5" y="-964.2" font-family="Times,serif" font-size="12.00" fill="#444444">nrecords</text>
<polygon fill="#ffffff" stroke="transparent" points="371.5,-941 371.5,-959 454.5,-959 454.5,-941 371.5,-941"/>
<text text-anchor="start" x="373.5" y="-946.2" font-family="Times,serif" font-size="12.00" fill="#444444">nsites</text>
<polygon fill="none" stroke="#555555" points="370,-940 370,-1140 455,-1140 455,-940 370,-940"/>
</g>
<!-- background&#45;&gt;parameters -->
<g id="background_1" class="edge">
<title>background:pcode&#45;&gt;parameters:pcode</title>
<path fill="none" stroke="#555555" d="M288,-1440C326.3486,-1440 320.701,-1402.9688 334,-1367 352.5827,-1316.7408 319.0864,-1137.3331 361.5911,-1114.4151"/>
<polygon fill="#555555" stroke="#555555" points="362.6132,-1117.7685 371.5,-1112 360.9556,-1110.9675 362.6132,-1117.7685"/>
</g>
<!-- benchmarks -->
<g id="benchmarks" class="node">
<title>benchmarks</title>
<polygon fill="#efebdd" stroke="transparent" points="213,-1339 213,-1357 304,-1357 304,-1339 213,-1339"/>
<text text-anchor="start" x="229.5116" y="-1344.2" font-family="Times,serif" font-size="12.00" fill="#000000">benchmarks</text>
<polygon fill="#ffffff" stroke="transparent" points="213,-1321 213,-1339 304,-1339 304,-1321 213,-1321"/>
<text text-anchor="start" x="215" y="-1326.2" font-family="Times,serif" font-size="12.00" fill="#444444">parm_nm</text>
<polygon fill="#ffffff" stroke="transparent" points="213,-1303 213,-1321 304,-1321 304,-1303 213,-1303"/>
<text text-anchor="start" x="215" y="-1309.2" font-family="Times,serif" text-decoration="underline" font-size="12.00" fill="#444444">pcode</text>
<polygon fill="#ffffff" stroke="transparent" points="213,-1285 213,-1303 304,-1303 304,-1285 213,-1285"/>
<text text-anchor="start" x="215" y="-1290.2" font-family="Times,serif" font-size="12.00" fill="#444444">mcl</text>
<polygon fill="#ffffff" stroke="transparent" points="213,-1267 213,-1285 304,-1285 304,-1267 213,-1267"/>
<text text-anchor="start" x="215" y="-1272.2" font-family="Times,serif" font-size="12.00" fill="#444444">hhbp_noncancer</text>
<polygon fill="#ffffff" stroke="transparent" points="213,-1249 213,-1267 304,-1267 304,-1249 213,-1249"/>
<text text-anchor="start" x="215" y="-1254.2" font-family="Times,serif" font-size="12.00" fill="#444444">hhbp_cancer_min</text>
<polygon fill="#ffffff" stroke="transparent" points="213,-1231 213,-1249 304,-1249 304,-1231 213,-1231"/>
<text text-anchor="start" x="214.5182" y="-1236.2" font-family="Times,serif" font-size="12.00" fill="#444444">hhbp_cancer_max</text>
<polygon fill="#ffffff" stroke="transparent" points="213,-1213 213,-1231 304,-1231 304,-1213 213,-1213"/>
<text text-anchor="start" x="215" y="-1218.2" font-family="Times,serif" font-size="12.00" fill="#444444">hbsl_noncancer</text>
<polygon fill="#ffffff" stroke="transparent" points="213,-1195 213,-1213 304,-1213 304,-1195 213,-1195"/>
<text text-anchor="start" x="215" y="-1200.2" font-family="Times,serif" font-size="12.00" fill="#444444">hbsl_cancer_min</text>
<polygon fill="#ffffff" stroke="transparent" points="213,-1177 213,-1195 304,-1195 304,-1177 213,-1177"/>
<text text-anchor="start" x="215" y="-1182.2" font-family="Times,serif" font-size="12.00" fill="#444444">hbsl_cancer_max</text>
<polygon fill="#ffffff" stroke="transparent" points="213,-1159 213,-1177 304,-1177 304,-1159 213,-1159"/>
<text text-anchor="start" x="215" y="-1164.2" font-family="Times,serif" font-size="12.00" fill="#444444">remark</text>
<polygon fill="none" stroke="#555555" points="211.5,-1158 211.5,-1358 304.5,-1358 304.5,-1158 211.5,-1158"/>
</g>
<!-- benchmarks&#45;&gt;parameters -->
<g id="benchmarks_1" class="edge">
<title>benchmarks:pcode&#45;&gt;parameters:pcode</title>
<path fill="none" stroke="#555555" d="M304,-1312C347.2428,-1312 328.2573,-1142.0293 361.777,-1115.4714"/>
<polygon fill="#555555" stroke="#555555" points="363.2591,-1118.6587 371.5,-1112 360.9054,-1112.0662 363.2591,-1118.6587"/>
</g>
<!-- cities -->
<g id="cities" class="node">
<title>cities</title>
<polygon fill="#efebdd" stroke="transparent" points="94,-780 94,-798 143,-798 143,-780 94,-780"/>
<text text-anchor="start" x="105.8376" y="-785.2" font-family="Times,serif" font-size="12.00" fill="#000000">cities</text>
<polygon fill="#ffffff" stroke="transparent" points="94,-762 94,-780 143,-780 143,-762 94,-762"/>
<text text-anchor="start" x="96" y="-767.2" font-family="Times,serif" font-size="12.00" fill="#444444">name</text>
<polygon fill="#ffffff" stroke="transparent" points="94,-744 94,-762 143,-762 143,-744 94,-744"/>
<text text-anchor="start" x="96" y="-750.2" font-family="Times,serif" text-decoration="underline" font-size="12.00" fill="#444444">id</text>
<polygon fill="#ffffff" stroke="transparent" points="94,-726 94,-744 143,-744 143,-726 94,-726"/>
<text text-anchor="start" x="95.841" y="-731.2" font-family="Times,serif" font-size="12.00" fill="#444444">geometry</text>
<polygon fill="none" stroke="#555555" points="92.5,-725 92.5,-799 143.5,-799 143.5,-725 92.5,-725"/>
</g>
<!-- counties -->
<g id="counties" class="node">
<title>counties</title>
<polygon fill="#efebdd" stroke="transparent" points="94,-655 94,-673 143,-673 143,-655 94,-655"/>
<text text-anchor="start" x="98.505" y="-660.2" font-family="Times,serif" font-size="12.00" fill="#000000">counties</text>
<polygon fill="#ffffff" stroke="transparent" points="94,-637 94,-655 143,-655 143,-637 94,-637"/>
<text text-anchor="start" x="96" y="-642.2" font-family="Times,serif" font-size="12.00" fill="#444444">name</text>
<polygon fill="#ffffff" stroke="transparent" points="94,-619 94,-637 143,-637 143,-619 94,-619"/>
<text text-anchor="start" x="96" y="-625.2" font-family="Times,serif" text-decoration="underline" font-size="12.00" fill="#444444">id</text>
<polygon fill="#ffffff" stroke="transparent" points="94,-601 94,-619 143,-619 143,-601 94,-601"/>
<text text-anchor="start" x="95.841" y="-606.2" font-family="Times,serif" font-size="12.00" fill="#444444">geometry</text>
<polygon fill="none" stroke="#555555" points="92.5,-600 92.5,-674 143.5,-674 143.5,-600 92.5,-600"/>
</g>
<!-- dl -->
<g id="dl" class="node">
<title>dl</title>
<polygon fill="#efebdd" stroke="transparent" points="219,-1121 219,-1139 297,-1139 297,-1121 219,-1121"/>
<text text-anchor="start" x="253.3326" y="-1126.2" font-family="Times,serif" font-size="12.00" fill="#000000">dl</text>
<polygon fill="#ffffff" stroke="transparent" points="219,-1103 219,-1121 297,-1121 297,-1103 219,-1103"/>
<text text-anchor="start" x="221" y="-1108.2" font-family="Times,serif" font-size="12.00" fill="#444444">parm_nm</text>
<polygon fill="#ffffff" stroke="transparent" points="219,-1085 219,-1103 297,-1103 297,-1085 219,-1085"/>
<text text-anchor="start" x="221" y="-1090.2" font-family="Times,serif" font-size="12.00" fill="#444444">pcode</text>
<polygon fill="#ffffff" stroke="transparent" points="219,-1067 219,-1085 297,-1085 297,-1067 219,-1067"/>
<text text-anchor="start" x="220.6728" y="-1072.2" font-family="Times,serif" font-size="12.00" fill="#444444">lab_det_lim_va</text>
<polygon fill="#ffffff" stroke="transparent" points="219,-1049 219,-1067 297,-1067 297,-1049 219,-1049"/>
<text text-anchor="start" x="221" y="-1054.2" font-family="Times,serif" font-size="12.00" fill="#444444">min_dt</text>
<polygon fill="#ffffff" stroke="transparent" points="219,-1031 219,-1049 297,-1049 297,-1031 219,-1031"/>
<text text-anchor="start" x="221" y="-1036.2" font-family="Times,serif" font-size="12.00" fill="#444444">reference</text>
<polygon fill="#ffffff" stroke="transparent" points="219,-1013 219,-1031 297,-1031 297,-1013 219,-1013"/>
<text text-anchor="start" x="221" y="-1019.2" font-family="Times,serif" text-decoration="underline" font-size="12.00" fill="#444444">pcode, min_dt</text>
<polygon fill="none" stroke="#555555" points="218,-1012 218,-1140 298,-1140 298,-1012 218,-1012"/>
</g>
<!-- dl&#45;&gt;parameters -->
<g id="dl_1" class="edge">
<title>dl:pcode&#45;&gt;parameters:pcode</title>
<path fill="none" stroke="#555555" d="M297,-1094C327.3381,-1094 335.7109,-1108.2778 361.2441,-1111.4011"/>
<polygon fill="#555555" stroke="#555555" points="361.3129,-1114.911 371.5,-1112 361.7211,-1107.9229 361.3129,-1114.911"/>
</g>
<!-- esrp -->
<g id="esrp" class="node">
<title>esrp</title>
<polygon fill="#efebdd" stroke="transparent" points="69,-544 69,-562 118,-562 118,-544 69,-544"/>
<text text-anchor="start" x="83.5058" y="-549.2" font-family="Times,serif" font-size="12.00" fill="#000000">esrp</text>
<polygon fill="#ffffff" stroke="transparent" points="69,-526 69,-544 118,-544 118,-526 69,-526"/>
<text text-anchor="start" x="70.841" y="-531.2" font-family="Times,serif" font-size="12.00" fill="#444444">geometry</text>
<polygon fill="none" stroke="#555555" points="67.5,-525 67.5,-563 118.5,-563 118.5,-525 67.5,-525"/>
</g>
<!-- facilities -->
<g id="facilities" class="node">
<title>facilities</title>
<polygon fill="#efebdd" stroke="transparent" points="94,-1041 94,-1059 143,-1059 143,-1041 94,-1041"/>
<text text-anchor="start" x="97.842" y="-1046.2" font-family="Times,serif" font-size="12.00" fill="#000000">facilities</text>
<polygon fill="#ffffff" stroke="transparent" points="94,-1023 94,-1041 143,-1041 143,-1023 94,-1023"/>
<text text-anchor="start" x="96" y="-1028.2" font-family="Times,serif" font-size="12.00" fill="#444444">name</text>
<polygon fill="#ffffff" stroke="transparent" points="94,-1005 94,-1023 143,-1023 143,-1005 94,-1005"/>
<text text-anchor="start" x="96" y="-1011.2" font-family="Times,serif" text-decoration="underline" font-size="12.00" fill="#444444">id</text>
<polygon fill="#ffffff" stroke="transparent" points="94,-987 94,-1005 143,-1005 143,-987 94,-987"/>
<text text-anchor="start" x="95.841" y="-992.2" font-family="Times,serif" font-size="12.00" fill="#444444">geometry</text>
<polygon fill="none" stroke="#555555" points="92.5,-986 92.5,-1060 143.5,-1060 143.5,-986 92.5,-986"/>
</g>
<!-- gwl -->
<g id="gwl" class="node">
<title>gwl</title>
<polygon fill="#efebdd" stroke="transparent" points="187,-487 187,-505 329,-505 329,-487 187,-487"/>
<text text-anchor="start" x="249.0012" y="-492.2" font-family="Times,serif" font-size="12.00" fill="#000000">gwl</text>
<polygon fill="#ffffff" stroke="transparent" points="187,-469 187,-487 329,-487 329,-469 187,-469"/>
<text text-anchor="start" x="189" y="-474.2" font-family="Times,serif" font-size="12.00" fill="#444444">site_nm</text>
<polygon fill="#ffffff" stroke="transparent" points="187,-451 187,-469 329,-469 329,-451 187,-451"/>
<text text-anchor="start" x="189" y="-456.2" font-family="Times,serif" font-size="12.00" fill="#444444">site_no</text>
<polygon fill="#ffffff" stroke="transparent" points="187,-433 187,-451 329,-451 329,-433 187,-433"/>
<text text-anchor="start" x="189" y="-438.2" font-family="Times,serif" font-size="12.00" fill="#444444">lev_dt</text>
<polygon fill="#ffffff" stroke="transparent" points="187,-415 187,-433 329,-433 329,-415 187,-415"/>
<text text-anchor="start" x="189" y="-420.2" font-family="Times,serif" font-size="12.00" fill="#444444">lev_meth_cd</text>
<polygon fill="#ffffff" stroke="transparent" points="187,-397 187,-415 329,-415 329,-397 187,-397"/>
<text text-anchor="start" x="189" y="-402.2" font-family="Times,serif" font-size="12.00" fill="#444444">lev_status_cd</text>
<polygon fill="#ffffff" stroke="transparent" points="187,-379 187,-397 329,-397 329,-379 187,-379"/>
<text text-anchor="start" x="189" y="-384.2" font-family="Times,serif" font-size="12.00" fill="#444444">lev_age_cd</text>
<polygon fill="#ffffff" stroke="transparent" points="187,-361 187,-379 329,-379 329,-361 187,-361"/>
<text text-anchor="start" x="189" y="-366.2" font-family="Times,serif" font-size="12.00" fill="#444444">lev_va</text>
<polygon fill="#ffffff" stroke="transparent" points="187,-343 187,-361 329,-361 329,-343 187,-343"/>
<text text-anchor="start" x="189" y="-348.2" font-family="Times,serif" font-size="12.00" fill="#444444">sl_lev_va</text>
<polygon fill="#ffffff" stroke="transparent" points="187,-325 187,-343 329,-343 329,-325 187,-325"/>
<text text-anchor="start" x="189" y="-330.2" font-family="Times,serif" font-size="12.00" fill="#444444">lev_acy_va</text>
<polygon fill="#ffffff" stroke="transparent" points="187,-307 187,-325 329,-325 329,-307 187,-307"/>
<text text-anchor="start" x="189" y="-312.2" font-family="Times,serif" font-size="12.00" fill="#444444">sl_lev_acy_va</text>
<polygon fill="#ffffff" stroke="transparent" points="187,-289 187,-307 329,-307 329,-289 187,-289"/>
<text text-anchor="start" x="188.6778" y="-295.2" font-family="Times,serif" text-decoration="underline" font-size="12.00" fill="#444444">site_no, lev_dt, lev_meth_cd</text>
<polygon fill="none" stroke="#555555" points="186,-288 186,-506 330,-506 330,-288 186,-288"/>
</g>
<!-- sites -->
<g id="sites" class="node">
<title>sites</title>
<polygon fill="#efebdd" stroke="transparent" points="373.5,-469 373.5,-487 451.5,-487 451.5,-469 373.5,-469"/>
<text text-anchor="start" x="401.835" y="-474.2" font-family="Times,serif" font-size="12.00" fill="#000000">sites</text>
<polygon fill="#ffffff" stroke="transparent" points="373.5,-451 373.5,-469 451.5,-469 451.5,-451 373.5,-451"/>
<text text-anchor="start" x="375.5" y="-457.2" font-family="Times,serif" text-decoration="underline" font-size="12.00" fill="#444444">site_no</text>
<polygon fill="#ffffff" stroke="transparent" points="373.5,-433 373.5,-451 451.5,-451 451.5,-433 373.5,-433"/>
<text text-anchor="start" x="375.5" y="-438.2" font-family="Times,serif" font-size="12.00" fill="#444444">site_nm</text>
<polygon fill="#ffffff" stroke="transparent" points="373.5,-415 373.5,-433 451.5,-433 451.5,-415 373.5,-415"/>
<text text-anchor="start" x="375.5" y="-420.2" font-family="Times,serif" font-size="12.00" fill="#444444">station_nm</text>
<polygon fill="#ffffff" stroke="transparent" points="373.5,-397 373.5,-415 451.5,-415 451.5,-397 373.5,-397"/>
<text text-anchor="start" x="375.1776" y="-402.2" font-family="Times,serif" font-size="12.00" fill="#444444">coord_meth_cd</text>
<polygon fill="#ffffff" stroke="transparent" points="373.5,-379 373.5,-397 451.5,-397 451.5,-379 373.5,-379"/>
<text text-anchor="start" x="375.5" y="-384.2" font-family="Times,serif" font-size="12.00" fill="#444444">coord_acy_va</text>
<polygon fill="#ffffff" stroke="transparent" points="373.5,-361 373.5,-379 451.5,-379 451.5,-361 373.5,-361"/>
<text text-anchor="start" x="375.5" y="-366.2" font-family="Times,serif" font-size="12.00" fill="#444444">alt_va</text>
<polygon fill="#ffffff" stroke="transparent" points="373.5,-343 373.5,-361 451.5,-361 451.5,-343 373.5,-343"/>
<text text-anchor="start" x="375.5" y="-348.2" font-family="Times,serif" font-size="12.00" fill="#444444">alt_meth_cd</text>
<polygon fill="#ffffff" stroke="transparent" points="373.5,-325 373.5,-343 451.5,-343 451.5,-325 373.5,-325"/>
<text text-anchor="start" x="375.5" y="-330.2" font-family="Times,serif" font-size="12.00" fill="#444444">alt_acy_va</text>
<polygon fill="#ffffff" stroke="transparent" points="373.5,-307 373.5,-325 451.5,-325 451.5,-307 373.5,-307"/>
<text text-anchor="start" x="375.5" y="-312.2" font-family="Times,serif" font-size="12.00" fill="#444444">huc_cd</text>
<polygon fill="#ffffff" stroke="transparent" points="373.5,-289 373.5,-307 451.5,-307 451.5,-289 373.5,-289"/>
<text text-anchor="start" x="375.1728" y="-294.2" font-family="Times,serif" font-size="12.00" fill="#444444">construction_dt</text>
<polygon fill="#ffffff" stroke="transparent" points="373.5,-271 373.5,-289 451.5,-289 451.5,-271 373.5,-271"/>
<text text-anchor="start" x="375.5" y="-276.2" font-family="Times,serif" font-size="12.00" fill="#444444">reliability_cd</text>
<polygon fill="#ffffff" stroke="transparent" points="373.5,-253 373.5,-271 451.5,-271 451.5,-253 373.5,-253"/>
<text text-anchor="start" x="375.5" y="-258.2" font-family="Times,serif" font-size="12.00" fill="#444444">nat_aqfr_cd</text>
<polygon fill="#ffffff" stroke="transparent" points="373.5,-235 373.5,-253 451.5,-253 451.5,-235 373.5,-235"/>
<text text-anchor="start" x="375.5" y="-240.2" font-family="Times,serif" font-size="12.00" fill="#444444">aqfr_cd</text>
<polygon fill="#ffffff" stroke="transparent" points="373.5,-217 373.5,-235 451.5,-235 451.5,-217 373.5,-217"/>
<text text-anchor="start" x="375.5" y="-222.2" font-family="Times,serif" font-size="12.00" fill="#444444">aqfr_type_cd</text>
<polygon fill="#ffffff" stroke="transparent" points="373.5,-199 373.5,-217 451.5,-217 451.5,-199 373.5,-199"/>
<text text-anchor="start" x="375.5" y="-204.2" font-family="Times,serif" font-size="12.00" fill="#444444">well_depth_va</text>
<polygon fill="#ffffff" stroke="transparent" points="373.5,-181 373.5,-199 451.5,-199 451.5,-181 373.5,-181"/>
<text text-anchor="start" x="375.5" y="-186.2" font-family="Times,serif" font-size="12.00" fill="#444444">hole_depth_va</text>
<polygon fill="#ffffff" stroke="transparent" points="373.5,-163 373.5,-181 451.5,-181 451.5,-163 373.5,-163"/>
<text text-anchor="start" x="375.5" y="-168.2" font-family="Times,serif" font-size="12.00" fill="#444444">depth_src_cd</text>
<polygon fill="#ffffff" stroke="transparent" points="373.5,-145 373.5,-163 451.5,-163 451.5,-145 373.5,-145"/>
<text text-anchor="start" x="375.5" y="-150.2" font-family="Times,serif" font-size="12.00" fill="#444444">completion_cd</text>
<polygon fill="#ffffff" stroke="transparent" points="373.5,-127 373.5,-145 451.5,-145 451.5,-127 373.5,-127"/>
<text text-anchor="start" x="375.5" y="-132.2" font-family="Times,serif" font-size="12.00" fill="#444444">network_cd</text>
<polygon fill="#ffffff" stroke="transparent" points="373.5,-109 373.5,-127 451.5,-127 451.5,-109 373.5,-109"/>
<text text-anchor="start" x="375.5" y="-114.2" font-family="Times,serif" font-size="12.00" fill="#444444">pos</text>
<polygon fill="#ffffff" stroke="transparent" points="373.5,-91 373.5,-109 451.5,-109 451.5,-91 373.5,-91"/>
<text text-anchor="start" x="375.5" y="-96.2" font-family="Times,serif" font-size="12.00" fill="#444444">min_dt</text>
<polygon fill="#ffffff" stroke="transparent" points="373.5,-73 373.5,-91 451.5,-91 451.5,-73 373.5,-73"/>
<text text-anchor="start" x="375.5" y="-78.2" font-family="Times,serif" font-size="12.00" fill="#444444">max_dt</text>
<polygon fill="#ffffff" stroke="transparent" points="373.5,-55 373.5,-73 451.5,-73 451.5,-55 373.5,-55"/>
<text text-anchor="start" x="375.5" y="-60.2" font-family="Times,serif" font-size="12.00" fill="#444444">nmeas</text>
<polygon fill="#ffffff" stroke="transparent" points="373.5,-37 373.5,-55 451.5,-55 451.5,-37 373.5,-37"/>
<text text-anchor="start" x="375.5" y="-42.2" font-family="Times,serif" font-size="12.00" fill="#444444">nsamples</text>
<polygon fill="#ffffff" stroke="transparent" points="373.5,-19 373.5,-37 451.5,-37 451.5,-19 373.5,-19"/>
<text text-anchor="start" x="375.5" y="-24.2" font-family="Times,serif" font-size="12.00" fill="#444444">nreps</text>
<polygon fill="#ffffff" stroke="transparent" points="373.5,-1 373.5,-19 451.5,-19 451.5,-1 373.5,-1"/>
<text text-anchor="start" x="375.5" y="-6.2" font-family="Times,serif" font-size="12.00" fill="#444444">geometry</text>
<polygon fill="none" stroke="#555555" points="372.5,0 372.5,-488 452.5,-488 452.5,0 372.5,0"/>
</g>
<!-- gwl&#45;&gt;sites -->
<g id="gwl_1" class="edge">
<title>gwl:site_no&#45;&gt;sites:site_no</title>
<path fill="none" stroke="#555555" d="M329,-460C344.9149,-460 351.225,-460 363.388,-460"/>
<polygon fill="#555555" stroke="#555555" points="363.5,-463.5001 373.5,-460 363.5,-456.5001 363.5,-463.5001"/>
</g>
<!-- idaho -->
<g id="idaho" class="node">
<title>idaho</title>
<polygon fill="#efebdd" stroke="transparent" points="519,-769 519,-787 568,-787 568,-769 519,-769"/>
<text text-anchor="start" x="530.1692" y="-774.2" font-family="Times,serif" font-size="12.00" fill="#000000">idaho</text>
<polygon fill="#ffffff" stroke="transparent" points="519,-751 519,-769 568,-769 568,-751 519,-751"/>
<text text-anchor="start" x="520.841" y="-756.2" font-family="Times,serif" font-size="12.00" fill="#444444">geometry</text>
<polygon fill="none" stroke="#555555" points="517.5,-750 517.5,-788 568.5,-788 568.5,-750 517.5,-750"/>
</g>
<!-- inl -->
<g id="inl" class="node">
<title>inl</title>
<polygon fill="#efebdd" stroke="transparent" points="369,-544 369,-562 418,-562 418,-544 369,-544"/>
<text text-anchor="start" x="387.1652" y="-549.2" font-family="Times,serif" font-size="12.00" fill="#000000">inl</text>
<polygon fill="#ffffff" stroke="transparent" points="369,-526 369,-544 418,-544 418,-526 369,-526"/>
<text text-anchor="start" x="370.841" y="-531.2" font-family="Times,serif" font-size="12.00" fill="#444444">geometry</text>
<polygon fill="none" stroke="#555555" points="367.5,-525 367.5,-563 418.5,-563 418.5,-525 367.5,-525"/>
</g>
<!-- iwd -->
<g id="iwd" class="node">
<title>iwd</title>
<polygon fill="#efebdd" stroke="transparent" points="519,-844 519,-862 568,-862 568,-844 519,-844"/>
<text text-anchor="start" x="534.5012" y="-849.2" font-family="Times,serif" font-size="12.00" fill="#000000">iwd</text>
<polygon fill="#ffffff" stroke="transparent" points="519,-826 519,-844 568,-844 568,-826 519,-826"/>
<text text-anchor="start" x="520.841" y="-831.2" font-family="Times,serif" font-size="12.00" fill="#444444">geometry</text>
<polygon fill="none" stroke="#555555" points="517.5,-825 517.5,-863 568.5,-863 568.5,-825 517.5,-825"/>
</g>
<!-- lakes -->
<g id="lakes" class="node">
<title>lakes</title>
<polygon fill="#efebdd" stroke="transparent" points="417,-859 417,-877 469,-877 469,-859 417,-859"/>
<text text-anchor="start" x="430.6724" y="-864.2" font-family="Times,serif" font-size="12.00" fill="#000000">lakes</text>
<polygon fill="#ffffff" stroke="transparent" points="417,-841 417,-859 469,-859 469,-841 417,-841"/>
<text text-anchor="start" x="419" y="-846.2" font-family="Times,serif" font-size="12.00" fill="#444444">gnis_nm</text>
<polygon fill="#ffffff" stroke="transparent" points="417,-823 417,-841 469,-841 469,-823 417,-823"/>
<text text-anchor="start" x="419" y="-829.2" font-family="Times,serif" text-decoration="underline" font-size="12.00" fill="#444444">id</text>
<polygon fill="#ffffff" stroke="transparent" points="417,-805 417,-823 469,-823 469,-805 417,-805"/>
<text text-anchor="start" x="419" y="-810.2" font-family="Times,serif" font-size="12.00" fill="#444444">reach_cd</text>
<polygon fill="#ffffff" stroke="transparent" points="417,-787 417,-805 469,-805 469,-787 417,-787"/>
<text text-anchor="start" x="419" y="-792.2" font-family="Times,serif" font-size="12.00" fill="#444444">gnis_id</text>
<polygon fill="#ffffff" stroke="transparent" points="417,-769 417,-787 469,-787 469,-769 417,-769"/>
<text text-anchor="start" x="418.6802" y="-774.2" font-family="Times,serif" font-size="12.00" fill="#444444">feature_tp</text>
<polygon fill="#ffffff" stroke="transparent" points="417,-751 417,-769 469,-769 469,-751 417,-751"/>
<text text-anchor="start" x="419" y="-756.2" font-family="Times,serif" font-size="12.00" fill="#444444">geometry</text>
<polygon fill="none" stroke="#555555" points="416,-750 416,-878 470,-878 470,-750 416,-750"/>
</g>
<!-- units -->
<g id="units" class="node">
<title>units</title>
<polygon fill="#efebdd" stroke="transparent" points="499,-976 499,-994 538,-994 538,-976 499,-976"/>
<text text-anchor="start" x="506.8318" y="-981.2" font-family="Times,serif" font-size="12.00" fill="#000000">units</text>
<polygon fill="#ffffff" stroke="transparent" points="499,-958 499,-976 538,-976 538,-958 499,-958"/>
<text text-anchor="start" x="500.5018" y="-964.2" font-family="Times,serif" text-decoration="underline" font-size="12.00" fill="#444444">unit_cd</text>
<polygon fill="#ffffff" stroke="transparent" points="499,-940 499,-958 538,-958 538,-940 499,-940"/>
<text text-anchor="start" x="500.8318" y="-945.2" font-family="Times,serif" font-size="12.00" fill="#444444">unit_ds</text>
<polygon fill="#ffffff" stroke="transparent" points="499,-922 499,-940 538,-940 538,-922 499,-922"/>
<text text-anchor="start" x="501" y="-927.2" font-family="Times,serif" font-size="12.00" fill="#444444">siunitx</text>
<polygon fill="none" stroke="#555555" points="497.5,-921 497.5,-995 538.5,-995 538.5,-921 497.5,-921"/>
</g>
<!-- parameters&#45;&gt;units -->
<g id="parameters_1" class="edge">
<title>parameters:unit_cd&#45;&gt;units:unit_cd</title>
<path fill="none" stroke="#555555" d="M454.5,-1022C481.7674,-1022 471.5616,-980.6392 488.8752,-969.6528"/>
<polygon fill="#555555" stroke="#555555" points="490.2136,-972.9203 499,-967 488.4394,-966.1489 490.2136,-972.9203"/>
</g>
<!-- percponds -->
<g id="percponds" class="node">
<title>percponds</title>
<polygon fill="#efebdd" stroke="transparent" points="1.5,-1041 1.5,-1059 54.5,-1059 54.5,-1041 1.5,-1041"/>
<text text-anchor="start" x="3.3424" y="-1046.2" font-family="Times,serif" font-size="12.00" fill="#000000">percponds</text>
<polygon fill="#ffffff" stroke="transparent" points="1.5,-1023 1.5,-1041 54.5,-1041 54.5,-1023 1.5,-1023"/>
<text text-anchor="start" x="3.5" y="-1028.2" font-family="Times,serif" font-size="12.00" fill="#444444">name</text>
<polygon fill="#ffffff" stroke="transparent" points="1.5,-1005 1.5,-1023 54.5,-1023 54.5,-1005 1.5,-1005"/>
<text text-anchor="start" x="3.3388" y="-1010.2" font-family="Times,serif" font-size="12.00" fill="#444444">facility_id</text>
<polygon fill="#ffffff" stroke="transparent" points="1.5,-987 1.5,-1005 54.5,-1005 54.5,-987 1.5,-987"/>
<text text-anchor="start" x="3.5" y="-992.2" font-family="Times,serif" font-size="12.00" fill="#444444">min_dt</text>
<polygon fill="#ffffff" stroke="transparent" points="1.5,-969 1.5,-987 54.5,-987 54.5,-969 1.5,-969"/>
<text text-anchor="start" x="3.5" y="-974.2" font-family="Times,serif" font-size="12.00" fill="#444444">max_dt</text>
<polygon fill="#ffffff" stroke="transparent" points="1.5,-951 1.5,-969 54.5,-969 54.5,-951 1.5,-951"/>
<text text-anchor="start" x="3.5" y="-956.2" font-family="Times,serif" font-size="12.00" fill="#444444">geometry</text>
<polygon fill="none" stroke="#555555" points="0,-950 0,-1060 55,-1060 55,-950 0,-950"/>
</g>
<!-- percponds&#45;&gt;facilities -->
<g id="percponds_1" class="edge">
<title>percponds:facility_id&#45;&gt;facilities:id</title>
<path fill="none" stroke="#555555" d="M54.5,-1014C68.0781,-1014 73.7799,-1014 83.789,-1014"/>
<polygon fill="#555555" stroke="#555555" points="84,-1017.5001 94,-1014 84,-1010.5001 84,-1017.5001"/>
</g>
<!-- roads -->
<g id="roads" class="node">
<title>roads</title>
<polygon fill="#efebdd" stroke="transparent" points="94,-923 94,-941 143,-941 143,-923 94,-923"/>
<text text-anchor="start" x="105.5058" y="-928.2" font-family="Times,serif" font-size="12.00" fill="#000000">roads</text>
<polygon fill="#ffffff" stroke="transparent" points="94,-905 94,-923 143,-923 143,-905 94,-905"/>
<text text-anchor="start" x="96" y="-910.2" font-family="Times,serif" font-size="12.00" fill="#444444">name</text>
<polygon fill="#ffffff" stroke="transparent" points="94,-887 94,-905 143,-905 143,-887 94,-887"/>
<text text-anchor="start" x="96" y="-893.2" font-family="Times,serif" text-decoration="underline" font-size="12.00" fill="#444444">id</text>
<polygon fill="#ffffff" stroke="transparent" points="94,-869 94,-887 143,-887 143,-869 94,-869"/>
<text text-anchor="start" x="96" y="-874.2" font-family="Times,serif" font-size="12.00" fill="#444444">prisec_fl</text>
<polygon fill="#ffffff" stroke="transparent" points="94,-851 94,-869 143,-869 143,-851 94,-851"/>
<text text-anchor="start" x="95.841" y="-856.2" font-family="Times,serif" font-size="12.00" fill="#444444">geometry</text>
<polygon fill="none" stroke="#555555" points="92.5,-850 92.5,-942 143.5,-942 143.5,-850 92.5,-850"/>
</g>
<!-- samples -->
<g id="samples" class="node">
<title>samples</title>
<polygon fill="#efebdd" stroke="transparent" points="183,-975 183,-993 333,-993 333,-975 183,-975"/>
<text text-anchor="start" x="238.6716" y="-980.2" font-family="Times,serif" font-size="12.00" fill="#000000">samples</text>
<polygon fill="#ffffff" stroke="transparent" points="183,-957 183,-975 333,-975 333,-957 183,-957"/>
<text text-anchor="start" x="185" y="-962.2" font-family="Times,serif" font-size="12.00" fill="#444444">site_nm</text>
<polygon fill="#ffffff" stroke="transparent" points="183,-939 183,-957 333,-957 333,-939 183,-939"/>
<text text-anchor="start" x="185" y="-944.2" font-family="Times,serif" font-size="12.00" fill="#444444">sample_dt</text>
<polygon fill="#ffffff" stroke="transparent" points="183,-921 183,-939 333,-939 333,-921 183,-921"/>
<text text-anchor="start" x="185" y="-926.2" font-family="Times,serif" font-size="12.00" fill="#444444">parm_short_nm</text>
<polygon fill="#ffffff" stroke="transparent" points="183,-903 183,-921 333,-921 333,-903 183,-903"/>
<text text-anchor="start" x="185" y="-908.2" font-family="Times,serif" font-size="12.00" fill="#444444">unit_cd</text>
<polygon fill="#ffffff" stroke="transparent" points="183,-885 183,-903 333,-903 333,-885 183,-885"/>
<text text-anchor="start" x="185" y="-890.2" font-family="Times,serif" font-size="12.00" fill="#444444">remark_cd</text>
<polygon fill="#ffffff" stroke="transparent" points="183,-867 183,-885 333,-885 333,-867 183,-867"/>
<text text-anchor="start" x="185" y="-872.2" font-family="Times,serif" font-size="12.00" fill="#444444">result_va</text>
<polygon fill="#ffffff" stroke="transparent" points="183,-849 183,-867 333,-867 333,-849 183,-849"/>
<text text-anchor="start" x="185" y="-854.2" font-family="Times,serif" font-size="12.00" fill="#444444">lab_sd_va</text>
<polygon fill="#ffffff" stroke="transparent" points="183,-831 183,-849 333,-849 333,-831 183,-831"/>
<text text-anchor="start" x="185" y="-836.2" font-family="Times,serif" font-size="12.00" fill="#444444">lab_li_va</text>
<polygon fill="#ffffff" stroke="transparent" points="183,-813 183,-831 333,-831 333,-813 183,-813"/>
<text text-anchor="start" x="185" y="-818.2" font-family="Times,serif" font-size="12.00" fill="#444444">lab_ui_va</text>
<polygon fill="#ffffff" stroke="transparent" points="183,-795 183,-813 333,-813 333,-795 183,-795"/>
<text text-anchor="start" x="185" y="-800.2" font-family="Times,serif" font-size="12.00" fill="#444444">rpt_lev_va</text>
<polygon fill="#ffffff" stroke="transparent" points="183,-777 183,-795 333,-795 333,-777 183,-777"/>
<text text-anchor="start" x="185" y="-782.2" font-family="Times,serif" font-size="12.00" fill="#444444">rpt_lev_cd</text>
<polygon fill="#ffffff" stroke="transparent" points="183,-759 183,-777 333,-777 333,-759 183,-759"/>
<text text-anchor="start" x="185" y="-764.2" font-family="Times,serif" font-size="12.00" fill="#444444">medium_cd</text>
<polygon fill="#ffffff" stroke="transparent" points="183,-741 183,-759 333,-759 333,-741 183,-741"/>
<text text-anchor="start" x="185" y="-746.2" font-family="Times,serif" font-size="12.00" fill="#444444">anl_ent_cd</text>
<polygon fill="#ffffff" stroke="transparent" points="183,-723 183,-741 333,-741 333,-723 183,-723"/>
<text text-anchor="start" x="185" y="-728.2" font-family="Times,serif" font-size="12.00" fill="#444444">dqi_cd</text>
<polygon fill="#ffffff" stroke="transparent" points="183,-705 183,-723 333,-723 333,-705 183,-705"/>
<text text-anchor="start" x="185" y="-710.2" font-family="Times,serif" font-size="12.00" fill="#444444">meth_cd</text>
<polygon fill="#ffffff" stroke="transparent" points="183,-687 183,-705 333,-705 333,-687 183,-687"/>
<text text-anchor="start" x="185" y="-692.2" font-family="Times,serif" font-size="12.00" fill="#444444">sample_type_cd</text>
<polygon fill="#ffffff" stroke="transparent" points="183,-669 183,-687 333,-687 333,-669 183,-669"/>
<text text-anchor="start" x="185" y="-674.2" font-family="Times,serif" font-size="12.00" fill="#444444">db_no</text>
<polygon fill="#ffffff" stroke="transparent" points="183,-651 183,-669 333,-669 333,-651 183,-651"/>
<text text-anchor="start" x="185" y="-656.2" font-family="Times,serif" font-size="12.00" fill="#444444">sample_id</text>
<polygon fill="#ffffff" stroke="transparent" points="183,-633 183,-651 333,-651 333,-633 183,-633"/>
<text text-anchor="start" x="185" y="-638.2" font-family="Times,serif" font-size="12.00" fill="#444444">site_no</text>
<polygon fill="#ffffff" stroke="transparent" points="183,-615 183,-633 333,-633 333,-615 183,-615"/>
<text text-anchor="start" x="185" y="-620.2" font-family="Times,serif" font-size="12.00" fill="#444444">pcode</text>
<polygon fill="#ffffff" stroke="transparent" points="183,-597 183,-615 333,-615 333,-597 183,-597"/>
<text text-anchor="start" x="185" y="-602.2" font-family="Times,serif" font-size="12.00" fill="#444444">rep_pair_id</text>
<polygon fill="#ffffff" stroke="transparent" points="183,-579 183,-597 333,-597 333,-579 183,-579"/>
<text text-anchor="start" x="185" y="-584.2" font-family="Times,serif" font-size="12.00" fill="#444444">result_tx</text>
<polygon fill="#ffffff" stroke="transparent" points="183,-561 183,-579 333,-579 333,-561 183,-561"/>
<text text-anchor="start" x="185" y="-566.2" font-family="Times,serif" font-size="12.00" fill="#444444">remark</text>
<polygon fill="#ffffff" stroke="transparent" points="183,-543 183,-561 333,-561 333,-543 183,-543"/>
<text text-anchor="start" x="185" y="-548.2" font-family="Times,serif" font-size="12.00" fill="#444444">anl_dt</text>
<polygon fill="#ffffff" stroke="transparent" points="183,-525 183,-543 333,-543 333,-525 183,-525"/>
<text text-anchor="start" x="184.6818" y="-531.2" font-family="Times,serif" text-decoration="underline" font-size="12.00" fill="#444444">sample_id, pcode, medium_cd</text>
<polygon fill="none" stroke="#555555" points="182,-524 182,-994 334,-994 334,-524 182,-524"/>
</g>
<!-- samples&#45;&gt;parameters -->
<g id="samples_1" class="edge">
<title>samples:pcode&#45;&gt;parameters:pcode</title>
<path fill="none" stroke="#555555" d="M333,-624C438.1695,-624 274.2921,-1080.1317 361.5953,-1110.4217"/>
<polygon fill="#555555" stroke="#555555" points="361.0738,-1113.8827 371.5,-1112 362.1754,-1106.9699 361.0738,-1113.8827"/>
</g>
<!-- samples&#45;&gt;sites -->
<g id="samples_2" class="edge">
<title>samples:site_no&#45;&gt;sites:site_no</title>
<path fill="none" stroke="#555555" d="M333,-642C412.1449,-642 301.4642,-475.9843 363.5544,-461.0688"/>
<polygon fill="#555555" stroke="#555555" points="363.9313,-464.5486 373.5,-460 363.1832,-457.5886 363.9313,-464.5486"/>
</g>
<!-- samples&#45;&gt;units -->
<g id="samples_3" class="edge">
<title>samples:unit_cd&#45;&gt;units:unit_cd</title>
<path fill="none" stroke="#555555" d="M333,-912C387.8758,-912 404.896,-908.6181 455,-931 474.4652,-939.6952 474.4192,-959.3462 489.1069,-965.2748"/>
<polygon fill="#555555" stroke="#555555" points="488.5474,-968.73 499,-967 489.75,-961.834 488.5474,-968.73"/>
</g>
<!-- streams -->
<g id="streams" class="node">
<title>streams</title>
<polygon fill="#efebdd" stroke="transparent" points="467,-684 467,-702 519,-702 519,-684 467,-684"/>
<text text-anchor="start" x="474.6742" y="-689.2" font-family="Times,serif" font-size="12.00" fill="#000000">streams</text>
<polygon fill="#ffffff" stroke="transparent" points="467,-666 467,-684 519,-684 519,-666 467,-666"/>
<text text-anchor="start" x="469" y="-671.2" font-family="Times,serif" font-size="12.00" fill="#444444">gnis_nm</text>
<polygon fill="#ffffff" stroke="transparent" points="467,-648 467,-666 519,-666 519,-648 467,-648"/>
<text text-anchor="start" x="469" y="-654.2" font-family="Times,serif" text-decoration="underline" font-size="12.00" fill="#444444">id</text>
<polygon fill="#ffffff" stroke="transparent" points="467,-630 467,-648 519,-648 519,-630 467,-630"/>
<text text-anchor="start" x="469" y="-635.2" font-family="Times,serif" font-size="12.00" fill="#444444">reach_cd</text>
<polygon fill="#ffffff" stroke="transparent" points="467,-612 467,-630 519,-630 519,-612 467,-612"/>
<text text-anchor="start" x="469" y="-617.2" font-family="Times,serif" font-size="12.00" fill="#444444">gnis_id</text>
<polygon fill="#ffffff" stroke="transparent" points="467,-594 467,-612 519,-612 519,-594 467,-594"/>
<text text-anchor="start" x="468.6802" y="-599.2" font-family="Times,serif" font-size="12.00" fill="#444444">feature_tp</text>
<polygon fill="#ffffff" stroke="transparent" points="467,-576 467,-594 519,-594 519,-576 467,-576"/>
<text text-anchor="start" x="469" y="-581.2" font-family="Times,serif" font-size="12.00" fill="#444444">geometry</text>
<polygon fill="none" stroke="#555555" points="466,-575 466,-703 520,-703 520,-575 466,-575"/>
</g>
<!-- swm -->
<g id="swm" class="node">
<title>swm</title>
<polygon fill="#efebdd" stroke="transparent" points="216,-251 216,-269 300,-269 300,-251 216,-251"/>
<text text-anchor="start" x="246.6678" y="-256.2" font-family="Times,serif" font-size="12.00" fill="#000000">swm</text>
<polygon fill="#ffffff" stroke="transparent" points="216,-233 216,-251 300,-251 300,-233 216,-233"/>
<text text-anchor="start" x="218" y="-238.2" font-family="Times,serif" font-size="12.00" fill="#444444">site_nm</text>
<polygon fill="#ffffff" stroke="transparent" points="216,-215 216,-233 300,-233 300,-215 216,-215"/>
<text text-anchor="start" x="218" y="-220.2" font-family="Times,serif" font-size="12.00" fill="#444444">site_no</text>
<polygon fill="#ffffff" stroke="transparent" points="216,-197 216,-215 300,-215 300,-197 216,-197"/>
<text text-anchor="start" x="218" y="-202.2" font-family="Times,serif" font-size="12.00" fill="#444444">stage_dt</text>
<polygon fill="#ffffff" stroke="transparent" points="216,-179 216,-197 300,-197 300,-179 216,-179"/>
<text text-anchor="start" x="218" y="-184.2" font-family="Times,serif" font-size="12.00" fill="#444444">stage_va</text>
<polygon fill="#ffffff" stroke="transparent" points="216,-161 216,-179 300,-179 300,-161 216,-161"/>
<text text-anchor="start" x="218" y="-166.2" font-family="Times,serif" font-size="12.00" fill="#444444">disch_va</text>
<polygon fill="#ffffff" stroke="transparent" points="216,-143 216,-161 300,-161 300,-143 216,-143"/>
<text text-anchor="start" x="218" y="-148.2" font-family="Times,serif" font-size="12.00" fill="#444444">stage_acy_va</text>
<polygon fill="#ffffff" stroke="transparent" points="216,-125 216,-143 300,-143 300,-125 216,-125"/>
<text text-anchor="start" x="218" y="-130.2" font-family="Times,serif" font-size="12.00" fill="#444444">disch_acy_va</text>
<polygon fill="#ffffff" stroke="transparent" points="216,-107 216,-125 300,-125 300,-107 216,-107"/>
<text text-anchor="start" x="217.6734" y="-113.2" font-family="Times,serif" text-decoration="underline" font-size="12.00" fill="#444444">site_no, stage_dt</text>
<polygon fill="none" stroke="#555555" points="215,-106 215,-270 301,-270 301,-106 215,-106"/>
</g>
<!-- swm&#45;&gt;sites -->
<g id="swm_1" class="edge">
<title>swm:site_no&#45;&gt;sites:site_no</title>
<path fill="none" stroke="#555555" d="M300,-224C328.7381,-224 323.2265,-252.3578 334,-279 348.047,-313.7375 335.1416,-435.1795 363.7489,-456.7207"/>
<polygon fill="#555555" stroke="#555555" points="362.906,-460.1298 373.5,-460 365.1373,-453.4949 362.906,-460.1298"/>
</g>
</g>
</svg>
