<?xml version="1.0" encoding="UTF-8" standalone="no"?>
<!DOCTYPE svg PUBLIC "-//W3C//DTD SVG 1.1//EN"
 "http://www.w3.org/Graphics/SVG/1.1/DTD/svg11.dtd">
<!-- Generated by graphviz version 2.40.1 (20161225.0304)
 -->
<!-- Title: %0 Pages: 1 -->
<svg width="561pt" height="1424pt"
 viewBox="0.00 0.00 561.00 1424.00" xmlns="http://www.w3.org/2000/svg" xmlns:xlink="http://www.w3.org/1999/xlink">
<g id="graph0" class="graph" transform="scale(1 1) rotate(0) translate(4 1420)">
<title>%0</title>
<g id="a_graph0"><a xlink:title="ERD">
<polygon fill="#ffffff" stroke="transparent" points="-4,4 -4,-1420 557,-1420 557,4 -4,4"/>
</a>
</g>
<!-- background -->
<g id="background" class="node">
<title>background</title>
<polygon fill="#efebdd" stroke="transparent" points="211,-1397 211,-1415 271,-1415 271,-1397 211,-1397"/>
<text text-anchor="start" x="212.6758" y="-1402.2" font-family="Times,serif" font-size="12.00" fill="#000000">background</text>
<polygon fill="#ffffff" stroke="transparent" points="211,-1379 211,-1397 271,-1397 271,-1379 211,-1379"/>
<text text-anchor="start" x="213" y="-1384.2" font-family="Times,serif" font-size="12.00" fill="#444444">srsname</text>
<polygon fill="#ffffff" stroke="transparent" points="211,-1361 211,-1379 271,-1379 271,-1361 211,-1361"/>
<text text-anchor="start" x="213" y="-1367.2" font-family="Times,serif" text-decoration="underline" font-size="12.00" fill="#444444">pcode</text>
<polygon fill="#ffffff" stroke="transparent" points="211,-1343 211,-1361 271,-1361 271,-1343 211,-1343"/>
<text text-anchor="start" x="213" y="-1348.2" font-family="Times,serif" font-size="12.00" fill="#444444">parm_unit</text>
<polygon fill="#ffffff" stroke="transparent" points="211,-1325 211,-1343 271,-1343 271,-1325 211,-1325"/>
<text text-anchor="start" x="213" y="-1330.2" font-family="Times,serif" font-size="12.00" fill="#444444">bkgrd_min</text>
<polygon fill="#ffffff" stroke="transparent" points="211,-1307 211,-1325 271,-1325 271,-1307 211,-1307"/>
<text text-anchor="start" x="213" y="-1312.2" font-family="Times,serif" font-size="12.00" fill="#444444">bkgrd_max</text>
<polygon fill="#ffffff" stroke="transparent" points="211,-1289 211,-1307 271,-1307 271,-1289 211,-1289"/>
<text text-anchor="start" x="213" y="-1294.2" font-family="Times,serif" font-size="12.00" fill="#444444">reference</text>
<polygon fill="none" stroke="#555555" points="210,-1288 210,-1416 272,-1416 272,-1288 210,-1288"/>
</g>
<!-- parameters -->
<g id="parameters" class="node">
<title>parameters</title>
<polygon fill="#efebdd" stroke="transparent" points="354.5,-1224 354.5,-1242 437.5,-1242 437.5,-1224 354.5,-1224"/>
<text text-anchor="start" x="369.6834" y="-1229.2" font-family="Times,serif" font-size="12.00" fill="#000000">parameters</text>
<polygon fill="#ffffff" stroke="transparent" points="354.5,-1206 354.5,-1224 437.5,-1224 437.5,-1206 354.5,-1206"/>
<text text-anchor="start" x="356.5" y="-1211.2" font-family="Times,serif" font-size="12.00" fill="#444444">parm_nm</text>
<polygon fill="#ffffff" stroke="transparent" points="354.5,-1188 354.5,-1206 437.5,-1206 437.5,-1188 354.5,-1188"/>
<text text-anchor="start" x="356.5" y="-1194.2" font-family="Times,serif" text-decoration="underline" font-size="12.00" fill="#444444">pcode</text>
<polygon fill="#ffffff" stroke="transparent" points="354.5,-1170 354.5,-1188 437.5,-1188 437.5,-1170 354.5,-1170"/>
<text text-anchor="start" x="356.007" y="-1175.2" font-family="Times,serif" font-size="12.00" fill="#444444">parm_group_nm</text>
<polygon fill="#ffffff" stroke="transparent" points="354.5,-1152 354.5,-1170 437.5,-1170 437.5,-1152 354.5,-1152"/>
<text text-anchor="start" x="356.5" y="-1157.2" font-family="Times,serif" font-size="12.00" fill="#444444">casrn</text>
<polygon fill="#ffffff" stroke="transparent" points="354.5,-1134 354.5,-1152 437.5,-1152 437.5,-1134 354.5,-1134"/>
<text text-anchor="start" x="356.5" y="-1139.2" font-family="Times,serif" font-size="12.00" fill="#444444">srsname</text>
<polygon fill="#ffffff" stroke="transparent" points="354.5,-1116 354.5,-1134 437.5,-1134 437.5,-1116 354.5,-1116"/>
<text text-anchor="start" x="356.5" y="-1121.2" font-family="Times,serif" font-size="12.00" fill="#444444">parm_unit</text>
<polygon fill="none" stroke="#555555" points="353,-1115 353,-1243 438,-1243 438,-1115 353,-1115"/>
</g>
<!-- background&#45;&gt;parameters -->
<g id="background_1" class="edge">
<title>background:pcode&#45;&gt;parameters:pcode</title>
<path fill="none" stroke="#555555" d="M271,-1370C316.3181,-1370 297.3503,-1319.8365 317,-1279 332.6792,-1246.415 317.966,-1205.8693 344.3861,-1198.261"/>
<polygon fill="#555555" stroke="#555555" points="345.0099,-1201.7104 354.5,-1197 344.1438,-1194.7642 345.0099,-1201.7104"/>
</g>
<!-- units -->
<g id="units" class="node">
<title>units</title>
<polygon fill="#efebdd" stroke="transparent" points="475.5,-1096 475.5,-1114 528.5,-1114 528.5,-1096 475.5,-1096"/>
<text text-anchor="start" x="490.3318" y="-1101.2" font-family="Times,serif" font-size="12.00" fill="#000000">units</text>
<polygon fill="#ffffff" stroke="transparent" points="475.5,-1078 475.5,-1096 528.5,-1096 528.5,-1078 475.5,-1078"/>
<text text-anchor="start" x="477.337" y="-1084.2" font-family="Times,serif" text-decoration="underline" font-size="12.00" fill="#444444">parm_unit</text>
<polygon fill="#ffffff" stroke="transparent" points="475.5,-1060 475.5,-1078 528.5,-1078 528.5,-1060 475.5,-1060"/>
<text text-anchor="start" x="477.5" y="-1065.2" font-family="Times,serif" font-size="12.00" fill="#444444">desc</text>
<polygon fill="#ffffff" stroke="transparent" points="475.5,-1042 475.5,-1060 528.5,-1060 528.5,-1042 475.5,-1042"/>
<text text-anchor="start" x="477.5" y="-1047.2" font-family="Times,serif" font-size="12.00" fill="#444444">siunitx</text>
<polygon fill="none" stroke="#555555" points="474,-1041 474,-1115 529,-1115 529,-1041 474,-1041"/>
</g>
<!-- background&#45;&gt;units -->
<g id="background_2" class="edge">
<title>background:parm_unit&#45;&gt;units:parm_unit</title>
<path fill="none" stroke="#555555" d="M271,-1352C357.5115,-1352 387.2164,-1322.0376 438,-1252 479.9038,-1194.2088 408.2845,-1097.4629 465.2212,-1087.7862"/>
<polygon fill="#555555" stroke="#555555" points="465.7961,-1091.2525 475.5,-1087 465.2622,-1084.2729 465.7961,-1091.2525"/>
</g>
<!-- benchmarks -->
<g id="benchmarks" class="node">
<title>benchmarks</title>
<polygon fill="#efebdd" stroke="transparent" points="196,-1251 196,-1269 287,-1269 287,-1251 196,-1251"/>
<text text-anchor="start" x="212.5116" y="-1256.2" font-family="Times,serif" font-size="12.00" fill="#000000">benchmarks</text>
<polygon fill="#ffffff" stroke="transparent" points="196,-1233 196,-1251 287,-1251 287,-1233 196,-1233"/>
<text text-anchor="start" x="198" y="-1238.2" font-family="Times,serif" font-size="12.00" fill="#444444">srsname</text>
<polygon fill="#ffffff" stroke="transparent" points="196,-1215 196,-1233 287,-1233 287,-1215 196,-1215"/>
<text text-anchor="start" x="198" y="-1221.2" font-family="Times,serif" text-decoration="underline" font-size="12.00" fill="#444444">pcode</text>
<polygon fill="#ffffff" stroke="transparent" points="196,-1197 196,-1215 287,-1215 287,-1197 196,-1197"/>
<text text-anchor="start" x="198" y="-1202.2" font-family="Times,serif" font-size="12.00" fill="#444444">parm_unit</text>
<polygon fill="#ffffff" stroke="transparent" points="196,-1179 196,-1197 287,-1197 287,-1179 196,-1179"/>
<text text-anchor="start" x="198" y="-1184.2" font-family="Times,serif" font-size="12.00" fill="#444444">mcl</text>
<polygon fill="#ffffff" stroke="transparent" points="196,-1161 196,-1179 287,-1179 287,-1161 196,-1161"/>
<text text-anchor="start" x="198" y="-1166.2" font-family="Times,serif" font-size="12.00" fill="#444444">hhbp_noncancer</text>
<polygon fill="#ffffff" stroke="transparent" points="196,-1143 196,-1161 287,-1161 287,-1143 196,-1143"/>
<text text-anchor="start" x="198" y="-1148.2" font-family="Times,serif" font-size="12.00" fill="#444444">hhbp_cancer_min</text>
<polygon fill="#ffffff" stroke="transparent" points="196,-1125 196,-1143 287,-1143 287,-1125 196,-1125"/>
<text text-anchor="start" x="197.5182" y="-1130.2" font-family="Times,serif" font-size="12.00" fill="#444444">hhbp_cancer_max</text>
<polygon fill="#ffffff" stroke="transparent" points="196,-1107 196,-1125 287,-1125 287,-1107 196,-1107"/>
<text text-anchor="start" x="198" y="-1112.2" font-family="Times,serif" font-size="12.00" fill="#444444">hbsl_noncancer</text>
<polygon fill="#ffffff" stroke="transparent" points="196,-1089 196,-1107 287,-1107 287,-1089 196,-1089"/>
<text text-anchor="start" x="198" y="-1094.2" font-family="Times,serif" font-size="12.00" fill="#444444">hbsl_cancer_min</text>
<polygon fill="#ffffff" stroke="transparent" points="196,-1071 196,-1089 287,-1089 287,-1071 196,-1071"/>
<text text-anchor="start" x="198" y="-1076.2" font-family="Times,serif" font-size="12.00" fill="#444444">hbsl_cancer_max</text>
<polygon fill="#ffffff" stroke="transparent" points="196,-1053 196,-1071 287,-1071 287,-1053 196,-1053"/>
<text text-anchor="start" x="198" y="-1058.2" font-family="Times,serif" font-size="12.00" fill="#444444">remark</text>
<polygon fill="none" stroke="#555555" points="194.5,-1052 194.5,-1270 287.5,-1270 287.5,-1052 194.5,-1052"/>
</g>
<!-- benchmarks&#45;&gt;parameters -->
<g id="benchmarks_1" class="edge">
<title>benchmarks:pcode&#45;&gt;parameters:pcode</title>
<path fill="none" stroke="#555555" d="M287,-1224C315.5245,-1224 321.1103,-1202.9573 344.2585,-1198.0255"/>
<polygon fill="#555555" stroke="#555555" points="344.8985,-1201.479 354.5,-1197 344.201,-1194.5138 344.8985,-1201.479"/>
</g>
<!-- benchmarks&#45;&gt;units -->
<g id="benchmarks_2" class="edge">
<title>benchmarks:parm_unit&#45;&gt;units:parm_unit</title>
<path fill="none" stroke="#555555" d="M287,-1206C340.2518,-1206 308.1859,-1134.7655 353,-1106 396.3772,-1078.1568 417.5873,-1085.7811 465.2553,-1086.8796"/>
<polygon fill="#555555" stroke="#555555" points="465.4595,-1090.3822 475.5,-1087 465.5418,-1083.3826 465.4595,-1090.3822"/>
</g>
<!-- cities -->
<g id="cities" class="node">
<title>cities</title>
<polygon fill="#efebdd" stroke="transparent" points="70,-703 70,-721 119,-721 119,-703 70,-703"/>
<text text-anchor="start" x="81.8376" y="-708.2" font-family="Times,serif" font-size="12.00" fill="#000000">cities</text>
<polygon fill="#ffffff" stroke="transparent" points="70,-685 70,-703 119,-703 119,-685 70,-685"/>
<text text-anchor="start" x="72" y="-690.2" font-family="Times,serif" font-size="12.00" fill="#444444">name</text>
<polygon fill="#ffffff" stroke="transparent" points="70,-667 70,-685 119,-685 119,-667 70,-667"/>
<text text-anchor="start" x="72" y="-673.2" font-family="Times,serif" text-decoration="underline" font-size="12.00" fill="#444444">id</text>
<polygon fill="#ffffff" stroke="transparent" points="70,-649 70,-667 119,-667 119,-649 70,-649"/>
<text text-anchor="start" x="71.841" y="-654.2" font-family="Times,serif" font-size="12.00" fill="#444444">geometry</text>
<polygon fill="none" stroke="#555555" points="68.5,-648 68.5,-722 119.5,-722 119.5,-648 68.5,-648"/>
</g>
<!-- counties -->
<g id="counties" class="node">
<title>counties</title>
<polygon fill="#efebdd" stroke="transparent" points="70,-583 70,-601 119,-601 119,-583 70,-583"/>
<text text-anchor="start" x="74.505" y="-588.2" font-family="Times,serif" font-size="12.00" fill="#000000">counties</text>
<polygon fill="#ffffff" stroke="transparent" points="70,-565 70,-583 119,-583 119,-565 70,-565"/>
<text text-anchor="start" x="72" y="-570.2" font-family="Times,serif" font-size="12.00" fill="#444444">name</text>
<polygon fill="#ffffff" stroke="transparent" points="70,-547 70,-565 119,-565 119,-547 70,-547"/>
<text text-anchor="start" x="72" y="-553.2" font-family="Times,serif" text-decoration="underline" font-size="12.00" fill="#444444">id</text>
<polygon fill="#ffffff" stroke="transparent" points="70,-529 70,-547 119,-547 119,-529 70,-529"/>
<text text-anchor="start" x="71.841" y="-534.2" font-family="Times,serif" font-size="12.00" fill="#444444">geometry</text>
<polygon fill="none" stroke="#555555" points="68.5,-528 68.5,-602 119.5,-602 119.5,-528 68.5,-528"/>
</g>
<!-- dl -->
<g id="dl" class="node">
<title>dl</title>
<polygon fill="#efebdd" stroke="transparent" points="202,-1015 202,-1033 280,-1033 280,-1015 202,-1015"/>
<text text-anchor="start" x="236.3326" y="-1020.2" font-family="Times,serif" font-size="12.00" fill="#000000">dl</text>
<polygon fill="#ffffff" stroke="transparent" points="202,-997 202,-1015 280,-1015 280,-997 202,-997"/>
<text text-anchor="start" x="204" y="-1002.2" font-family="Times,serif" font-size="12.00" fill="#444444">srsname</text>
<polygon fill="#ffffff" stroke="transparent" points="202,-979 202,-997 280,-997 280,-979 202,-979"/>
<text text-anchor="start" x="204" y="-984.2" font-family="Times,serif" font-size="12.00" fill="#444444">pcode</text>
<polygon fill="#ffffff" stroke="transparent" points="202,-961 202,-979 280,-979 280,-961 202,-961"/>
<text text-anchor="start" x="204" y="-966.2" font-family="Times,serif" font-size="12.00" fill="#444444">parm_unit</text>
<polygon fill="#ffffff" stroke="transparent" points="202,-943 202,-961 280,-961 280,-943 202,-943"/>
<text text-anchor="start" x="203.6728" y="-948.2" font-family="Times,serif" font-size="12.00" fill="#444444">lab_det_lim_va</text>
<polygon fill="#ffffff" stroke="transparent" points="202,-925 202,-943 280,-943 280,-925 202,-925"/>
<text text-anchor="start" x="204" y="-930.2" font-family="Times,serif" font-size="12.00" fill="#444444">sdate</text>
<polygon fill="#ffffff" stroke="transparent" points="202,-907 202,-925 280,-925 280,-907 202,-907"/>
<text text-anchor="start" x="204" y="-912.2" font-family="Times,serif" font-size="12.00" fill="#444444">reference</text>
<polygon fill="#ffffff" stroke="transparent" points="202,-889 202,-907 280,-907 280,-889 202,-889"/>
<text text-anchor="start" x="204" y="-895.2" font-family="Times,serif" text-decoration="underline" font-size="12.00" fill="#444444">pcode, sdate</text>
<polygon fill="none" stroke="#555555" points="201,-888 201,-1034 281,-1034 281,-888 201,-888"/>
</g>
<!-- dl&#45;&gt;parameters -->
<g id="dl_1" class="edge">
<title>dl:pcode&#45;&gt;parameters:pcode</title>
<path fill="none" stroke="#555555" d="M280,-988C309.461,-988 305.1075,-1016.046 317,-1043 343.9366,-1104.0513 290.2795,-1187.6251 344.4227,-1196.2697"/>
<polygon fill="#555555" stroke="#555555" points="344.2731,-1199.768 354.5,-1197 344.7792,-1192.7863 344.2731,-1199.768"/>
</g>
<!-- dl&#45;&gt;units -->
<g id="dl_2" class="edge">
<title>dl:parm_unit&#45;&gt;units:parm_unit</title>
<path fill="none" stroke="#555555" d="M280,-970C377.7994,-970 374.593,-1079.1386 465.4877,-1086.5993"/>
<polygon fill="#555555" stroke="#555555" points="465.368,-1090.0972 475.5,-1087 465.648,-1083.1028 465.368,-1090.0972"/>
</g>
<!-- esrp -->
<g id="esrp" class="node">
<title>esrp</title>
<polygon fill="#efebdd" stroke="transparent" points="502,-667 502,-685 551,-685 551,-667 502,-667"/>
<text text-anchor="start" x="516.5058" y="-672.2" font-family="Times,serif" font-size="12.00" fill="#000000">esrp</text>
<polygon fill="#ffffff" stroke="transparent" points="502,-649 502,-667 551,-667 551,-649 502,-649"/>
<text text-anchor="start" x="503.841" y="-654.2" font-family="Times,serif" font-size="12.00" fill="#444444">geometry</text>
<polygon fill="none" stroke="#555555" points="500.5,-648 500.5,-686 551.5,-686 551.5,-648 500.5,-648"/>
</g>
<!-- facilities -->
<g id="facilities" class="node">
<title>facilities</title>
<polygon fill="#efebdd" stroke="transparent" points="94,-967 94,-985 143,-985 143,-967 94,-967"/>
<text text-anchor="start" x="97.842" y="-972.2" font-family="Times,serif" font-size="12.00" fill="#000000">facilities</text>
<polygon fill="#ffffff" stroke="transparent" points="94,-949 94,-967 143,-967 143,-949 94,-949"/>
<text text-anchor="start" x="96" y="-954.2" font-family="Times,serif" font-size="12.00" fill="#444444">name</text>
<polygon fill="#ffffff" stroke="transparent" points="94,-931 94,-949 143,-949 143,-931 94,-931"/>
<text text-anchor="start" x="96" y="-937.2" font-family="Times,serif" text-decoration="underline" font-size="12.00" fill="#444444">id</text>
<polygon fill="#ffffff" stroke="transparent" points="94,-913 94,-931 143,-931 143,-913 94,-913"/>
<text text-anchor="start" x="95.841" y="-918.2" font-family="Times,serif" font-size="12.00" fill="#444444">geometry</text>
<polygon fill="none" stroke="#555555" points="92.5,-912 92.5,-986 143.5,-986 143.5,-912 92.5,-912"/>
</g>
<!-- gwl -->
<g id="gwl" class="node">
<title>gwl</title>
<polygon fill="#efebdd" stroke="transparent" points="170,-381 170,-399 312,-399 312,-381 170,-381"/>
<text text-anchor="start" x="232.0012" y="-386.2" font-family="Times,serif" font-size="12.00" fill="#000000">gwl</text>
<polygon fill="#ffffff" stroke="transparent" points="170,-363 170,-381 312,-381 312,-363 170,-363"/>
<text text-anchor="start" x="172" y="-368.2" font-family="Times,serif" font-size="12.00" fill="#444444">site_nm</text>
<polygon fill="#ffffff" stroke="transparent" points="170,-345 170,-363 312,-363 312,-345 170,-345"/>
<text text-anchor="start" x="172" y="-350.2" font-family="Times,serif" font-size="12.00" fill="#444444">site_no</text>
<polygon fill="#ffffff" stroke="transparent" points="170,-327 170,-345 312,-345 312,-327 170,-327"/>
<text text-anchor="start" x="172" y="-332.2" font-family="Times,serif" font-size="12.00" fill="#444444">lev_dt</text>
<polygon fill="#ffffff" stroke="transparent" points="170,-309 170,-327 312,-327 312,-309 170,-309"/>
<text text-anchor="start" x="172" y="-314.2" font-family="Times,serif" font-size="12.00" fill="#444444">lev_meth_cd</text>
<polygon fill="#ffffff" stroke="transparent" points="170,-291 170,-309 312,-309 312,-291 170,-291"/>
<text text-anchor="start" x="172" y="-296.2" font-family="Times,serif" font-size="12.00" fill="#444444">lev_status_cd</text>
<polygon fill="#ffffff" stroke="transparent" points="170,-273 170,-291 312,-291 312,-273 170,-273"/>
<text text-anchor="start" x="172" y="-278.2" font-family="Times,serif" font-size="12.00" fill="#444444">lev_age_cd</text>
<polygon fill="#ffffff" stroke="transparent" points="170,-255 170,-273 312,-273 312,-255 170,-255"/>
<text text-anchor="start" x="172" y="-260.2" font-family="Times,serif" font-size="12.00" fill="#444444">lev_va</text>
<polygon fill="#ffffff" stroke="transparent" points="170,-237 170,-255 312,-255 312,-237 170,-237"/>
<text text-anchor="start" x="172" y="-242.2" font-family="Times,serif" font-size="12.00" fill="#444444">sl_lev_va</text>
<polygon fill="#ffffff" stroke="transparent" points="170,-219 170,-237 312,-237 312,-219 170,-219"/>
<text text-anchor="start" x="172" y="-224.2" font-family="Times,serif" font-size="12.00" fill="#444444">lev_acy_va</text>
<polygon fill="#ffffff" stroke="transparent" points="170,-201 170,-219 312,-219 312,-201 170,-201"/>
<text text-anchor="start" x="172" y="-206.2" font-family="Times,serif" font-size="12.00" fill="#444444">sl_lev_acy_va</text>
<polygon fill="#ffffff" stroke="transparent" points="170,-183 170,-201 312,-201 312,-183 170,-183"/>
<text text-anchor="start" x="171.6778" y="-189.2" font-family="Times,serif" text-decoration="underline" font-size="12.00" fill="#444444">site_no, lev_dt, lev_meth_cd</text>
<polygon fill="none" stroke="#555555" points="169,-182 169,-400 313,-400 313,-182 169,-182"/>
</g>
<!-- sites -->
<g id="sites" class="node">
<title>sites</title>
<polygon fill="#efebdd" stroke="transparent" points="356.5,-399 356.5,-417 434.5,-417 434.5,-399 356.5,-399"/>
<text text-anchor="start" x="384.835" y="-404.2" font-family="Times,serif" font-size="12.00" fill="#000000">sites</text>
<polygon fill="#ffffff" stroke="transparent" points="356.5,-381 356.5,-399 434.5,-399 434.5,-381 356.5,-381"/>
<text text-anchor="start" x="358.5" y="-386.2" font-family="Times,serif" font-size="12.00" fill="#444444">site_nm</text>
<polygon fill="#ffffff" stroke="transparent" points="356.5,-363 356.5,-381 434.5,-381 434.5,-363 356.5,-363"/>
<text text-anchor="start" x="358.5" y="-368.2" font-family="Times,serif" font-size="12.00" fill="#444444">station_nm</text>
<polygon fill="#ffffff" stroke="transparent" points="356.5,-345 356.5,-363 434.5,-363 434.5,-345 356.5,-345"/>
<text text-anchor="start" x="358.5" y="-351.2" font-family="Times,serif" text-decoration="underline" font-size="12.00" fill="#444444">site_no</text>
<polygon fill="#ffffff" stroke="transparent" points="356.5,-327 356.5,-345 434.5,-345 434.5,-327 356.5,-327"/>
<text text-anchor="start" x="358.1776" y="-332.2" font-family="Times,serif" font-size="12.00" fill="#444444">coord_meth_cd</text>
<polygon fill="#ffffff" stroke="transparent" points="356.5,-309 356.5,-327 434.5,-327 434.5,-309 356.5,-309"/>
<text text-anchor="start" x="358.5" y="-314.2" font-family="Times,serif" font-size="12.00" fill="#444444">coord_acy_cd</text>
<polygon fill="#ffffff" stroke="transparent" points="356.5,-291 356.5,-309 434.5,-309 434.5,-291 356.5,-291"/>
<text text-anchor="start" x="358.5" y="-296.2" font-family="Times,serif" font-size="12.00" fill="#444444">alt_va</text>
<polygon fill="#ffffff" stroke="transparent" points="356.5,-273 356.5,-291 434.5,-291 434.5,-273 356.5,-273"/>
<text text-anchor="start" x="358.5" y="-278.2" font-family="Times,serif" font-size="12.00" fill="#444444">alt_meth_cd</text>
<polygon fill="#ffffff" stroke="transparent" points="356.5,-255 356.5,-273 434.5,-273 434.5,-255 356.5,-255"/>
<text text-anchor="start" x="358.5" y="-260.2" font-family="Times,serif" font-size="12.00" fill="#444444">alt_acy_va</text>
<polygon fill="#ffffff" stroke="transparent" points="356.5,-237 356.5,-255 434.5,-255 434.5,-237 356.5,-237"/>
<text text-anchor="start" x="358.5" y="-242.2" font-family="Times,serif" font-size="12.00" fill="#444444">huc_cd</text>
<polygon fill="#ffffff" stroke="transparent" points="356.5,-219 356.5,-237 434.5,-237 434.5,-219 356.5,-219"/>
<text text-anchor="start" x="358.1728" y="-224.2" font-family="Times,serif" font-size="12.00" fill="#444444">construction_dt</text>
<polygon fill="#ffffff" stroke="transparent" points="356.5,-201 356.5,-219 434.5,-219 434.5,-201 356.5,-201"/>
<text text-anchor="start" x="358.5" y="-206.2" font-family="Times,serif" font-size="12.00" fill="#444444">reliability_cd</text>
<polygon fill="#ffffff" stroke="transparent" points="356.5,-183 356.5,-201 434.5,-201 434.5,-183 356.5,-183"/>
<text text-anchor="start" x="358.5" y="-188.2" font-family="Times,serif" font-size="12.00" fill="#444444">nat_aqfr_cd</text>
<polygon fill="#ffffff" stroke="transparent" points="356.5,-165 356.5,-183 434.5,-183 434.5,-165 356.5,-165"/>
<text text-anchor="start" x="358.5" y="-170.2" font-family="Times,serif" font-size="12.00" fill="#444444">aqfr_cd</text>
<polygon fill="#ffffff" stroke="transparent" points="356.5,-147 356.5,-165 434.5,-165 434.5,-147 356.5,-147"/>
<text text-anchor="start" x="358.5" y="-152.2" font-family="Times,serif" font-size="12.00" fill="#444444">aqfr_type_cd</text>
<polygon fill="#ffffff" stroke="transparent" points="356.5,-129 356.5,-147 434.5,-147 434.5,-129 356.5,-129"/>
<text text-anchor="start" x="358.5" y="-134.2" font-family="Times,serif" font-size="12.00" fill="#444444">well_depth_va</text>
<polygon fill="#ffffff" stroke="transparent" points="356.5,-111 356.5,-129 434.5,-129 434.5,-111 356.5,-111"/>
<text text-anchor="start" x="358.5" y="-116.2" font-family="Times,serif" font-size="12.00" fill="#444444">hole_depth_va</text>
<polygon fill="#ffffff" stroke="transparent" points="356.5,-93 356.5,-111 434.5,-111 434.5,-93 356.5,-93"/>
<text text-anchor="start" x="358.5" y="-98.2" font-family="Times,serif" font-size="12.00" fill="#444444">depth_src_cd</text>
<polygon fill="#ffffff" stroke="transparent" points="356.5,-75 356.5,-93 434.5,-93 434.5,-75 356.5,-75"/>
<text text-anchor="start" x="358.5" y="-80.2" font-family="Times,serif" font-size="12.00" fill="#444444">completion_cd</text>
<polygon fill="#ffffff" stroke="transparent" points="356.5,-57 356.5,-75 434.5,-75 434.5,-57 356.5,-57"/>
<text text-anchor="start" x="358.5" y="-62.2" font-family="Times,serif" font-size="12.00" fill="#444444">network_cd</text>
<polygon fill="#ffffff" stroke="transparent" points="356.5,-39 356.5,-57 434.5,-57 434.5,-39 356.5,-39"/>
<text text-anchor="start" x="358.5" y="-44.2" font-family="Times,serif" font-size="12.00" fill="#444444">pos</text>
<polygon fill="#ffffff" stroke="transparent" points="356.5,-21 356.5,-39 434.5,-39 434.5,-21 356.5,-21"/>
<text text-anchor="start" x="358.5" y="-26.2" font-family="Times,serif" font-size="12.00" fill="#444444">geometry</text>
<polygon fill="none" stroke="#555555" points="355.5,-20 355.5,-418 435.5,-418 435.5,-20 355.5,-20"/>
</g>
<!-- gwl&#45;&gt;sites -->
<g id="gwl_1" class="edge">
<title>gwl:site_no&#45;&gt;sites:site_no</title>
<path fill="none" stroke="#555555" d="M312,-354C327.9149,-354 334.225,-354 346.388,-354"/>
<polygon fill="#555555" stroke="#555555" points="346.5,-357.5001 356.5,-354 346.5,-350.5001 346.5,-357.5001"/>
</g>
<!-- idaho -->
<g id="idaho" class="node">
<title>idaho</title>
<polygon fill="#efebdd" stroke="transparent" points="502,-523 502,-541 551,-541 551,-523 502,-523"/>
<text text-anchor="start" x="513.1692" y="-528.2" font-family="Times,serif" font-size="12.00" fill="#000000">idaho</text>
<polygon fill="#ffffff" stroke="transparent" points="502,-505 502,-523 551,-523 551,-505 502,-505"/>
<text text-anchor="start" x="503.841" y="-510.2" font-family="Times,serif" font-size="12.00" fill="#444444">geometry</text>
<polygon fill="none" stroke="#555555" points="500.5,-504 500.5,-542 551.5,-542 551.5,-504 500.5,-504"/>
</g>
<!-- inl -->
<g id="inl" class="node">
<title>inl</title>
<polygon fill="#efebdd" stroke="transparent" points="406,-571 406,-589 455,-589 455,-571 406,-571"/>
<text text-anchor="start" x="424.1652" y="-576.2" font-family="Times,serif" font-size="12.00" fill="#000000">inl</text>
<polygon fill="#ffffff" stroke="transparent" points="406,-553 406,-571 455,-571 455,-553 406,-553"/>
<text text-anchor="start" x="407.841" y="-558.2" font-family="Times,serif" font-size="12.00" fill="#444444">geometry</text>
<polygon fill="none" stroke="#555555" points="404.5,-552 404.5,-590 455.5,-590 455.5,-552 404.5,-552"/>
</g>
<!-- iwd -->
<g id="iwd" class="node">
<title>iwd</title>
<polygon fill="#efebdd" stroke="transparent" points="502,-595 502,-613 551,-613 551,-595 502,-595"/>
<text text-anchor="start" x="517.5012" y="-600.2" font-family="Times,serif" font-size="12.00" fill="#000000">iwd</text>
<polygon fill="#ffffff" stroke="transparent" points="502,-577 502,-595 551,-595 551,-577 502,-577"/>
<text text-anchor="start" x="503.841" y="-582.2" font-family="Times,serif" font-size="12.00" fill="#444444">geometry</text>
<polygon fill="none" stroke="#555555" points="500.5,-576 500.5,-614 551.5,-614 551.5,-576 500.5,-576"/>
</g>
<!-- lakes -->
<g id="lakes" class="node">
<title>lakes</title>
<polygon fill="#efebdd" stroke="transparent" points="452,-925 452,-943 504,-943 504,-925 452,-925"/>
<text text-anchor="start" x="465.6724" y="-930.2" font-family="Times,serif" font-size="12.00" fill="#000000">lakes</text>
<polygon fill="#ffffff" stroke="transparent" points="452,-907 452,-925 504,-925 504,-907 452,-907"/>
<text text-anchor="start" x="454" y="-912.2" font-family="Times,serif" font-size="12.00" fill="#444444">gnis_nm</text>
<polygon fill="#ffffff" stroke="transparent" points="452,-889 452,-907 504,-907 504,-889 452,-889"/>
<text text-anchor="start" x="454" y="-895.2" font-family="Times,serif" text-decoration="underline" font-size="12.00" fill="#444444">id</text>
<polygon fill="#ffffff" stroke="transparent" points="452,-871 452,-889 504,-889 504,-871 452,-871"/>
<text text-anchor="start" x="454" y="-876.2" font-family="Times,serif" font-size="12.00" fill="#444444">reach_cd</text>
<polygon fill="#ffffff" stroke="transparent" points="452,-853 452,-871 504,-871 504,-853 452,-853"/>
<text text-anchor="start" x="454" y="-858.2" font-family="Times,serif" font-size="12.00" fill="#444444">gnis_id</text>
<polygon fill="#ffffff" stroke="transparent" points="452,-835 452,-853 504,-853 504,-835 452,-835"/>
<text text-anchor="start" x="453.6802" y="-840.2" font-family="Times,serif" font-size="12.00" fill="#444444">feature_tp</text>
<polygon fill="#ffffff" stroke="transparent" points="452,-817 452,-835 504,-835 504,-817 452,-817"/>
<text text-anchor="start" x="454" y="-822.2" font-family="Times,serif" font-size="12.00" fill="#444444">geometry</text>
<polygon fill="none" stroke="#555555" points="451,-816 451,-944 505,-944 505,-816 451,-816"/>
</g>
<!-- mountains -->
<g id="mountains" class="node">
<title>mountains</title>
<polygon fill="#efebdd" stroke="transparent" points="499.5,-757 499.5,-775 552.5,-775 552.5,-757 499.5,-757"/>
<text text-anchor="start" x="501.001" y="-762.2" font-family="Times,serif" font-size="12.00" fill="#000000">mountains</text>
<polygon fill="#ffffff" stroke="transparent" points="499.5,-739 499.5,-757 552.5,-757 552.5,-739 499.5,-739"/>
<text text-anchor="start" x="501.5" y="-744.2" font-family="Times,serif" font-size="12.00" fill="#444444">name</text>
<polygon fill="#ffffff" stroke="transparent" points="499.5,-721 499.5,-739 552.5,-739 552.5,-721 499.5,-721"/>
<text text-anchor="start" x="501.5" y="-726.2" font-family="Times,serif" font-size="12.00" fill="#444444">geometry</text>
<polygon fill="none" stroke="#555555" points="498,-720 498,-776 553,-776 553,-720 498,-720"/>
</g>
<!-- parameters&#45;&gt;units -->
<g id="parameters_1" class="edge">
<title>parameters:parm_unit&#45;&gt;units:parm_unit</title>
<path fill="none" stroke="#555555" d="M437.5,-1125C457.2793,-1125 453.9794,-1098.9399 465.8253,-1089.9818"/>
<polygon fill="#555555" stroke="#555555" points="466.9745,-1093.2902 475.5,-1087 464.9127,-1086.6007 466.9745,-1093.2902"/>
</g>
<!-- percponds -->
<g id="percponds" class="node">
<title>percponds</title>
<polygon fill="#efebdd" stroke="transparent" points="1.5,-967 1.5,-985 54.5,-985 54.5,-967 1.5,-967"/>
<text text-anchor="start" x="3.3424" y="-972.2" font-family="Times,serif" font-size="12.00" fill="#000000">percponds</text>
<polygon fill="#ffffff" stroke="transparent" points="1.5,-949 1.5,-967 54.5,-967 54.5,-949 1.5,-949"/>
<text text-anchor="start" x="3.5" y="-954.2" font-family="Times,serif" font-size="12.00" fill="#444444">name</text>
<polygon fill="#ffffff" stroke="transparent" points="1.5,-931 1.5,-949 54.5,-949 54.5,-931 1.5,-931"/>
<text text-anchor="start" x="3.3388" y="-936.2" font-family="Times,serif" font-size="12.00" fill="#444444">facility_id</text>
<polygon fill="#ffffff" stroke="transparent" points="1.5,-913 1.5,-931 54.5,-931 54.5,-913 1.5,-913"/>
<text text-anchor="start" x="3.5" y="-918.2" font-family="Times,serif" font-size="12.00" fill="#444444">geometry</text>
<polygon fill="none" stroke="#555555" points="0,-912 0,-986 55,-986 55,-912 0,-912"/>
</g>
<!-- percponds&#45;&gt;facilities -->
<g id="percponds_1" class="edge">
<title>percponds:facility_id&#45;&gt;facilities:id</title>
<path fill="none" stroke="#555555" d="M54.5,-940C68.0781,-940 73.7799,-940 83.789,-940"/>
<polygon fill="#555555" stroke="#555555" points="84,-943.5001 94,-940 84,-936.5001 84,-943.5001"/>
</g>
<!-- roads -->
<g id="roads" class="node">
<title>roads</title>
<polygon fill="#efebdd" stroke="transparent" points="70,-859 70,-877 119,-877 119,-859 70,-859"/>
<text text-anchor="start" x="81.5058" y="-864.2" font-family="Times,serif" font-size="12.00" fill="#000000">roads</text>
<polygon fill="#ffffff" stroke="transparent" points="70,-841 70,-859 119,-859 119,-841 70,-841"/>
<text text-anchor="start" x="72" y="-846.2" font-family="Times,serif" font-size="12.00" fill="#444444">name</text>
<polygon fill="#ffffff" stroke="transparent" points="70,-823 70,-841 119,-841 119,-823 70,-823"/>
<text text-anchor="start" x="72" y="-829.2" font-family="Times,serif" text-decoration="underline" font-size="12.00" fill="#444444">id</text>
<polygon fill="#ffffff" stroke="transparent" points="70,-805 70,-823 119,-823 119,-805 70,-805"/>
<text text-anchor="start" x="72" y="-810.2" font-family="Times,serif" font-size="12.00" fill="#444444">route_tp</text>
<polygon fill="#ffffff" stroke="transparent" points="70,-787 70,-805 119,-805 119,-787 70,-787"/>
<text text-anchor="start" x="72" y="-792.2" font-family="Times,serif" font-size="12.00" fill="#444444">prisec_fl</text>
<polygon fill="#ffffff" stroke="transparent" points="70,-769 70,-787 119,-787 119,-769 70,-769"/>
<text text-anchor="start" x="71.841" y="-774.2" font-family="Times,serif" font-size="12.00" fill="#444444">geometry</text>
<polygon fill="none" stroke="#555555" points="68.5,-768 68.5,-878 119.5,-878 119.5,-768 68.5,-768"/>
</g>
<!-- samples -->
<g id="samples" class="node">
<title>samples</title>
<polygon fill="#efebdd" stroke="transparent" points="166,-851 166,-869 316,-869 316,-851 166,-851"/>
<text text-anchor="start" x="221.6716" y="-856.2" font-family="Times,serif" font-size="12.00" fill="#000000">samples</text>
<polygon fill="#ffffff" stroke="transparent" points="166,-833 166,-851 316,-851 316,-833 166,-833"/>
<text text-anchor="start" x="168" y="-838.2" font-family="Times,serif" font-size="12.00" fill="#444444">site_nm</text>
<polygon fill="#ffffff" stroke="transparent" points="166,-815 166,-833 316,-833 316,-815 166,-815"/>
<text text-anchor="start" x="168" y="-820.2" font-family="Times,serif" font-size="12.00" fill="#444444">sample_dt</text>
<polygon fill="#ffffff" stroke="transparent" points="166,-797 166,-815 316,-815 316,-797 166,-797"/>
<text text-anchor="start" x="168" y="-802.2" font-family="Times,serif" font-size="12.00" fill="#444444">parm_short_nm</text>
<polygon fill="#ffffff" stroke="transparent" points="166,-779 166,-797 316,-797 316,-779 166,-779"/>
<text text-anchor="start" x="168" y="-784.2" font-family="Times,serif" font-size="12.00" fill="#444444">parm_unit</text>
<polygon fill="#ffffff" stroke="transparent" points="166,-761 166,-779 316,-779 316,-761 166,-761"/>
<text text-anchor="start" x="168" y="-766.2" font-family="Times,serif" font-size="12.00" fill="#444444">remark_cd</text>
<polygon fill="#ffffff" stroke="transparent" points="166,-743 166,-761 316,-761 316,-743 166,-743"/>
<text text-anchor="start" x="168" y="-748.2" font-family="Times,serif" font-size="12.00" fill="#444444">result_va</text>
<polygon fill="#ffffff" stroke="transparent" points="166,-725 166,-743 316,-743 316,-725 166,-725"/>
<text text-anchor="start" x="168" y="-730.2" font-family="Times,serif" font-size="12.00" fill="#444444">lab_sd_va</text>
<polygon fill="#ffffff" stroke="transparent" points="166,-707 166,-725 316,-725 316,-707 166,-707"/>
<text text-anchor="start" x="168" y="-712.2" font-family="Times,serif" font-size="12.00" fill="#444444">lab_li_va</text>
<polygon fill="#ffffff" stroke="transparent" points="166,-689 166,-707 316,-707 316,-689 166,-689"/>
<text text-anchor="start" x="168" y="-694.2" font-family="Times,serif" font-size="12.00" fill="#444444">lab_ui_va</text>
<polygon fill="#ffffff" stroke="transparent" points="166,-671 166,-689 316,-689 316,-671 166,-671"/>
<text text-anchor="start" x="168" y="-676.2" font-family="Times,serif" font-size="12.00" fill="#444444">rpt_lev_va</text>
<polygon fill="#ffffff" stroke="transparent" points="166,-653 166,-671 316,-671 316,-653 166,-653"/>
<text text-anchor="start" x="168" y="-658.2" font-family="Times,serif" font-size="12.00" fill="#444444">rpt_lev_cd</text>
<polygon fill="#ffffff" stroke="transparent" points="166,-635 166,-653 316,-653 316,-635 166,-635"/>
<text text-anchor="start" x="168" y="-640.2" font-family="Times,serif" font-size="12.00" fill="#444444">medium_cd</text>
<polygon fill="#ffffff" stroke="transparent" points="166,-617 166,-635 316,-635 316,-617 166,-617"/>
<text text-anchor="start" x="168" y="-622.2" font-family="Times,serif" font-size="12.00" fill="#444444">anl_ent_cd</text>
<polygon fill="#ffffff" stroke="transparent" points="166,-599 166,-617 316,-617 316,-599 166,-599"/>
<text text-anchor="start" x="168" y="-604.2" font-family="Times,serif" font-size="12.00" fill="#444444">dqi_cd</text>
<polygon fill="#ffffff" stroke="transparent" points="166,-581 166,-599 316,-599 316,-581 166,-581"/>
<text text-anchor="start" x="168" y="-586.2" font-family="Times,serif" font-size="12.00" fill="#444444">meth_cd</text>
<polygon fill="#ffffff" stroke="transparent" points="166,-563 166,-581 316,-581 316,-563 166,-563"/>
<text text-anchor="start" x="168" y="-568.2" font-family="Times,serif" font-size="12.00" fill="#444444">sample_type_cd</text>
<polygon fill="#ffffff" stroke="transparent" points="166,-545 166,-563 316,-563 316,-545 166,-545"/>
<text text-anchor="start" x="168" y="-550.2" font-family="Times,serif" font-size="12.00" fill="#444444">db_no</text>
<polygon fill="#ffffff" stroke="transparent" points="166,-527 166,-545 316,-545 316,-527 166,-527"/>
<text text-anchor="start" x="168" y="-532.2" font-family="Times,serif" font-size="12.00" fill="#444444">sample_id</text>
<polygon fill="#ffffff" stroke="transparent" points="166,-509 166,-527 316,-527 316,-509 166,-509"/>
<text text-anchor="start" x="168" y="-514.2" font-family="Times,serif" font-size="12.00" fill="#444444">site_no</text>
<polygon fill="#ffffff" stroke="transparent" points="166,-491 166,-509 316,-509 316,-491 166,-491"/>
<text text-anchor="start" x="168" y="-496.2" font-family="Times,serif" font-size="12.00" fill="#444444">pcode</text>
<polygon fill="#ffffff" stroke="transparent" points="166,-473 166,-491 316,-491 316,-473 166,-473"/>
<text text-anchor="start" x="168" y="-478.2" font-family="Times,serif" font-size="12.00" fill="#444444">rep_pair_id</text>
<polygon fill="#ffffff" stroke="transparent" points="166,-455 166,-473 316,-473 316,-455 166,-455"/>
<text text-anchor="start" x="168" y="-460.2" font-family="Times,serif" font-size="12.00" fill="#444444">result_tx</text>
<polygon fill="#ffffff" stroke="transparent" points="166,-437 166,-455 316,-455 316,-437 166,-437"/>
<text text-anchor="start" x="168" y="-442.2" font-family="Times,serif" font-size="12.00" fill="#444444">remark</text>
<polygon fill="#ffffff" stroke="transparent" points="166,-419 166,-437 316,-437 316,-419 166,-419"/>
<text text-anchor="start" x="167.6818" y="-425.2" font-family="Times,serif" text-decoration="underline" font-size="12.00" fill="#444444">sample_id, pcode, medium_cd</text>
<polygon fill="none" stroke="#555555" points="165,-418 165,-870 317,-870 317,-418 165,-418"/>
</g>
<!-- samples&#45;&gt;parameters -->
<g id="samples_1" class="edge">
<title>samples:pcode&#45;&gt;parameters:pcode</title>
<path fill="none" stroke="#555555" d="M316,-500C390.0782,-500 287.0237,-1135.7854 345.1876,-1192.9068"/>
<polygon fill="#555555" stroke="#555555" points="343.9369,-1196.1802 354.5,-1197 346.7537,-1189.7719 343.9369,-1196.1802"/>
</g>
<!-- samples&#45;&gt;sites -->
<g id="samples_2" class="edge">
<title>samples:site_no&#45;&gt;sites:site_no</title>
<path fill="none" stroke="#555555" d="M316,-518C387.266,-518 292.0821,-370.2333 346.443,-355.2258"/>
<polygon fill="#555555" stroke="#555555" points="346.997,-358.6843 356.5,-354 346.15,-351.7357 346.997,-358.6843"/>
</g>
<!-- samples&#45;&gt;units -->
<g id="samples_3" class="edge">
<title>samples:parm_unit&#45;&gt;units:parm_unit</title>
<path fill="none" stroke="#555555" d="M316,-788C423.5565,-788 390.0981,-900.6994 438,-997 455.5652,-1032.3127 436.324,-1077.8998 465.3964,-1085.8062"/>
<polygon fill="#555555" stroke="#555555" points="465.1584,-1089.3024 475.5,-1087 465.9798,-1082.3507 465.1584,-1089.3024"/>
</g>
<!-- streams -->
<g id="streams" class="node">
<title>streams</title>
<polygon fill="#efebdd" stroke="transparent" points="387.5,-751 387.5,-769 456.5,-769 456.5,-751 387.5,-751"/>
<text text-anchor="start" x="403.6742" y="-756.2" font-family="Times,serif" font-size="12.00" fill="#000000">streams</text>
<polygon fill="#ffffff" stroke="transparent" points="387.5,-733 387.5,-751 456.5,-751 456.5,-733 387.5,-733"/>
<text text-anchor="start" x="389.5" y="-738.2" font-family="Times,serif" font-size="12.00" fill="#444444">gnis_nm</text>
<polygon fill="#ffffff" stroke="transparent" points="387.5,-715 387.5,-733 456.5,-733 456.5,-715 387.5,-715"/>
<text text-anchor="start" x="389.5" y="-721.2" font-family="Times,serif" text-decoration="underline" font-size="12.00" fill="#444444">id</text>
<polygon fill="#ffffff" stroke="transparent" points="387.5,-697 387.5,-715 456.5,-715 456.5,-697 387.5,-697"/>
<text text-anchor="start" x="389.5" y="-702.2" font-family="Times,serif" font-size="12.00" fill="#444444">reach_cd</text>
<polygon fill="#ffffff" stroke="transparent" points="387.5,-679 387.5,-697 456.5,-697 456.5,-679 387.5,-679"/>
<text text-anchor="start" x="389.5" y="-684.2" font-family="Times,serif" font-size="12.00" fill="#444444">gnis_id</text>
<polygon fill="#ffffff" stroke="transparent" points="387.5,-661 387.5,-679 456.5,-679 456.5,-661 387.5,-661"/>
<text text-anchor="start" x="389.5" y="-666.2" font-family="Times,serif" font-size="12.00" fill="#444444">feature_tp</text>
<polygon fill="#ffffff" stroke="transparent" points="387.5,-643 387.5,-661 456.5,-661 456.5,-643 387.5,-643"/>
<text text-anchor="start" x="389.3402" y="-648.2" font-family="Times,serif" font-size="12.00" fill="#444444">resolution_cd</text>
<polygon fill="#ffffff" stroke="transparent" points="387.5,-625 387.5,-643 456.5,-643 456.5,-625 387.5,-625"/>
<text text-anchor="start" x="389.5" y="-630.2" font-family="Times,serif" font-size="12.00" fill="#444444">geometry</text>
<polygon fill="none" stroke="#555555" points="386,-624 386,-770 457,-770 457,-624 386,-624"/>
</g>
<!-- swm -->
<g id="swm" class="node">
<title>swm</title>
<polygon fill="#efebdd" stroke="transparent" points="199,-145 199,-163 283,-163 283,-145 199,-145"/>
<text text-anchor="start" x="229.6678" y="-150.2" font-family="Times,serif" font-size="12.00" fill="#000000">swm</text>
<polygon fill="#ffffff" stroke="transparent" points="199,-127 199,-145 283,-145 283,-127 199,-127"/>
<text text-anchor="start" x="201" y="-132.2" font-family="Times,serif" font-size="12.00" fill="#444444">site_nm</text>
<polygon fill="#ffffff" stroke="transparent" points="199,-109 199,-127 283,-127 283,-109 199,-109"/>
<text text-anchor="start" x="201" y="-114.2" font-family="Times,serif" font-size="12.00" fill="#444444">site_no</text>
<polygon fill="#ffffff" stroke="transparent" points="199,-91 199,-109 283,-109 283,-91 199,-91"/>
<text text-anchor="start" x="201" y="-96.2" font-family="Times,serif" font-size="12.00" fill="#444444">stage_dt</text>
<polygon fill="#ffffff" stroke="transparent" points="199,-73 199,-91 283,-91 283,-73 199,-73"/>
<text text-anchor="start" x="201" y="-78.2" font-family="Times,serif" font-size="12.00" fill="#444444">stage_va</text>
<polygon fill="#ffffff" stroke="transparent" points="199,-55 199,-73 283,-73 283,-55 199,-55"/>
<text text-anchor="start" x="201" y="-60.2" font-family="Times,serif" font-size="12.00" fill="#444444">disch_va</text>
<polygon fill="#ffffff" stroke="transparent" points="199,-37 199,-55 283,-55 283,-37 199,-37"/>
<text text-anchor="start" x="201" y="-42.2" font-family="Times,serif" font-size="12.00" fill="#444444">stage_acy_va</text>
<polygon fill="#ffffff" stroke="transparent" points="199,-19 199,-37 283,-37 283,-19 199,-19"/>
<text text-anchor="start" x="201" y="-24.2" font-family="Times,serif" font-size="12.00" fill="#444444">disch_acy_va</text>
<polygon fill="#ffffff" stroke="transparent" points="199,-1 199,-19 283,-19 283,-1 199,-1"/>
<text text-anchor="start" x="200.6734" y="-7.2" font-family="Times,serif" text-decoration="underline" font-size="12.00" fill="#444444">site_no, stage_dt</text>
<polygon fill="none" stroke="#555555" points="198,0 198,-164 284,-164 284,0 198,0"/>
</g>
<!-- swm&#45;&gt;sites -->
<g id="swm_1" class="edge">
<title>swm:site_no&#45;&gt;sites:site_no</title>
<path fill="none" stroke="#555555" d="M283,-118C311.7381,-118 306.2265,-146.3578 317,-173 331.047,-207.7375 318.1416,-329.1795 346.7489,-350.7207"/>
<polygon fill="#555555" stroke="#555555" points="345.906,-354.1298 356.5,-354 348.1373,-347.4949 345.906,-354.1298"/>
</g>
</g>
</svg>
