<?xml version="1.0" encoding="UTF-8" standalone="no"?>
<!DOCTYPE svg PUBLIC "-//W3C//DTD SVG 1.1//EN"
 "http://www.w3.org/Graphics/SVG/1.1/DTD/svg11.dtd">
<!-- Generated by graphviz version 2.40.1 (20161225.0304)
 -->
<!-- Title: %0 Pages: 1 -->
<svg width="530pt" height="1548pt"
 viewBox="0.00 0.00 530.00 1548.00" xmlns="http://www.w3.org/2000/svg" xmlns:xlink="http://www.w3.org/1999/xlink">
<g id="graph0" class="graph" transform="scale(1 1) rotate(0) translate(4 1544)">
<title>%0</title>
<g id="a_graph0"><a xlink:title="ERD">
<polygon fill="#ffffff" stroke="transparent" points="-4,4 -4,-1544 526,-1544 526,4 -4,4"/>
</a>
</g>
<!-- background -->
<g id="background" class="node">
<title>background</title>
<polygon fill="#efebdd" stroke="transparent" points="152,-1521 152,-1539 212,-1539 212,-1521 152,-1521"/>
<text text-anchor="start" x="153.6758" y="-1526.2" font-family="Times,serif" font-size="12.00" fill="#000000">background</text>
<polygon fill="#ffffff" stroke="transparent" points="152,-1503 152,-1521 212,-1521 212,-1503 152,-1503"/>
<text text-anchor="start" x="154" y="-1508.2" font-family="Times,serif" font-size="12.00" fill="#444444">srsname</text>
<polygon fill="#ffffff" stroke="transparent" points="152,-1485 152,-1503 212,-1503 212,-1485 152,-1485"/>
<text text-anchor="start" x="154" y="-1491.2" font-family="Times,serif" text-decoration="underline" font-size="12.00" fill="#444444">pcode</text>
<polygon fill="#ffffff" stroke="transparent" points="152,-1467 152,-1485 212,-1485 212,-1467 152,-1467"/>
<text text-anchor="start" x="154" y="-1472.2" font-family="Times,serif" font-size="12.00" fill="#444444">parm_unit</text>
<polygon fill="#ffffff" stroke="transparent" points="152,-1449 152,-1467 212,-1467 212,-1449 152,-1449"/>
<text text-anchor="start" x="154" y="-1454.2" font-family="Times,serif" font-size="12.00" fill="#444444">bkgrd_min</text>
<polygon fill="#ffffff" stroke="transparent" points="152,-1431 152,-1449 212,-1449 212,-1431 152,-1431"/>
<text text-anchor="start" x="154" y="-1436.2" font-family="Times,serif" font-size="12.00" fill="#444444">bkgrd_max</text>
<polygon fill="#ffffff" stroke="transparent" points="152,-1413 152,-1431 212,-1431 212,-1413 152,-1413"/>
<text text-anchor="start" x="154" y="-1418.2" font-family="Times,serif" font-size="12.00" fill="#444444">reference</text>
<polygon fill="none" stroke="#555555" points="151,-1412 151,-1540 213,-1540 213,-1412 151,-1412"/>
</g>
<!-- parameters -->
<g id="parameters" class="node">
<title>parameters</title>
<polygon fill="#efebdd" stroke="transparent" points="295.5,-1353 295.5,-1371 378.5,-1371 378.5,-1353 295.5,-1353"/>
<text text-anchor="start" x="310.6834" y="-1358.2" font-family="Times,serif" font-size="12.00" fill="#000000">parameters</text>
<polygon fill="#ffffff" stroke="transparent" points="295.5,-1335 295.5,-1353 378.5,-1353 378.5,-1335 295.5,-1335"/>
<text text-anchor="start" x="297.5" y="-1341.2" font-family="Times,serif" text-decoration="underline" font-size="12.00" fill="#444444">pcode</text>
<polygon fill="#ffffff" stroke="transparent" points="295.5,-1317 295.5,-1335 378.5,-1335 378.5,-1317 295.5,-1317"/>
<text text-anchor="start" x="297.5" y="-1322.2" font-family="Times,serif" font-size="12.00" fill="#444444">parm_nm</text>
<polygon fill="#ffffff" stroke="transparent" points="295.5,-1299 295.5,-1317 378.5,-1317 378.5,-1299 295.5,-1299"/>
<text text-anchor="start" x="297.007" y="-1304.2" font-family="Times,serif" font-size="12.00" fill="#444444">parm_group_nm</text>
<polygon fill="#ffffff" stroke="transparent" points="295.5,-1281 295.5,-1299 378.5,-1299 378.5,-1281 295.5,-1281"/>
<text text-anchor="start" x="297.5" y="-1286.2" font-family="Times,serif" font-size="12.00" fill="#444444">casrn</text>
<polygon fill="#ffffff" stroke="transparent" points="295.5,-1263 295.5,-1281 378.5,-1281 378.5,-1263 295.5,-1263"/>
<text text-anchor="start" x="297.5" y="-1268.2" font-family="Times,serif" font-size="12.00" fill="#444444">srsname</text>
<polygon fill="#ffffff" stroke="transparent" points="295.5,-1245 295.5,-1263 378.5,-1263 378.5,-1245 295.5,-1245"/>
<text text-anchor="start" x="297.5" y="-1250.2" font-family="Times,serif" font-size="12.00" fill="#444444">parm_unit</text>
<polygon fill="#ffffff" stroke="transparent" points="295.5,-1227 295.5,-1245 378.5,-1245 378.5,-1227 295.5,-1227"/>
<text text-anchor="start" x="297.5" y="-1232.2" font-family="Times,serif" font-size="12.00" fill="#444444">min_dt</text>
<polygon fill="#ffffff" stroke="transparent" points="295.5,-1209 295.5,-1227 378.5,-1227 378.5,-1209 295.5,-1209"/>
<text text-anchor="start" x="297.5" y="-1214.2" font-family="Times,serif" font-size="12.00" fill="#444444">max_dt</text>
<polygon fill="#ffffff" stroke="transparent" points="295.5,-1191 295.5,-1209 378.5,-1209 378.5,-1191 295.5,-1191"/>
<text text-anchor="start" x="297.5" y="-1196.2" font-family="Times,serif" font-size="12.00" fill="#444444">nrecords</text>
<polygon fill="#ffffff" stroke="transparent" points="295.5,-1173 295.5,-1191 378.5,-1191 378.5,-1173 295.5,-1173"/>
<text text-anchor="start" x="297.5" y="-1178.2" font-family="Times,serif" font-size="12.00" fill="#444444">nsites</text>
<polygon fill="none" stroke="#555555" points="294,-1172 294,-1372 379,-1372 379,-1172 294,-1172"/>
</g>
<!-- background&#45;&gt;parameters -->
<g id="background_1" class="edge">
<title>background:pcode&#45;&gt;parameters:pcode</title>
<path fill="none" stroke="#555555" d="M212,-1494C246.7224,-1494 255.8064,-1369.7423 285.922,-1347.4148"/>
<polygon fill="#555555" stroke="#555555" points="287.2561,-1350.655 295.5,-1344 284.9053,-1344.0615 287.2561,-1350.655"/>
</g>
<!-- units -->
<g id="units" class="node">
<title>units</title>
<polygon fill="#efebdd" stroke="transparent" points="416.5,-1153 416.5,-1171 469.5,-1171 469.5,-1153 416.5,-1153"/>
<text text-anchor="start" x="431.3318" y="-1158.2" font-family="Times,serif" font-size="12.00" fill="#000000">units</text>
<polygon fill="#ffffff" stroke="transparent" points="416.5,-1135 416.5,-1153 469.5,-1153 469.5,-1135 416.5,-1135"/>
<text text-anchor="start" x="418.337" y="-1141.2" font-family="Times,serif" text-decoration="underline" font-size="12.00" fill="#444444">parm_unit</text>
<polygon fill="#ffffff" stroke="transparent" points="416.5,-1117 416.5,-1135 469.5,-1135 469.5,-1117 416.5,-1117"/>
<text text-anchor="start" x="418.5" y="-1122.2" font-family="Times,serif" font-size="12.00" fill="#444444">desc</text>
<polygon fill="#ffffff" stroke="transparent" points="416.5,-1099 416.5,-1117 469.5,-1117 469.5,-1099 416.5,-1099"/>
<text text-anchor="start" x="418.5" y="-1104.2" font-family="Times,serif" font-size="12.00" fill="#444444">siunitx</text>
<polygon fill="none" stroke="#555555" points="415,-1098 415,-1172 470,-1172 470,-1098 415,-1098"/>
</g>
<!-- background&#45;&gt;units -->
<g id="background_2" class="edge">
<title>background:parm_unit&#45;&gt;units:parm_unit</title>
<path fill="none" stroke="#555555" d="M212,-1476C297.3912,-1476 330.4147,-1451.2219 379,-1381 407.2055,-1340.2336 369.2913,-1170.4237 406.6667,-1146.7457"/>
<polygon fill="#555555" stroke="#555555" points="407.8097,-1150.0605 416.5,-1144 405.9271,-1143.3184 407.8097,-1150.0605"/>
</g>
<!-- benchmarks -->
<g id="benchmarks" class="node">
<title>benchmarks</title>
<polygon fill="#efebdd" stroke="transparent" points="137,-1375 137,-1393 228,-1393 228,-1375 137,-1375"/>
<text text-anchor="start" x="153.5116" y="-1380.2" font-family="Times,serif" font-size="12.00" fill="#000000">benchmarks</text>
<polygon fill="#ffffff" stroke="transparent" points="137,-1357 137,-1375 228,-1375 228,-1357 137,-1357"/>
<text text-anchor="start" x="139" y="-1362.2" font-family="Times,serif" font-size="12.00" fill="#444444">srsname</text>
<polygon fill="#ffffff" stroke="transparent" points="137,-1339 137,-1357 228,-1357 228,-1339 137,-1339"/>
<text text-anchor="start" x="139" y="-1345.2" font-family="Times,serif" text-decoration="underline" font-size="12.00" fill="#444444">pcode</text>
<polygon fill="#ffffff" stroke="transparent" points="137,-1321 137,-1339 228,-1339 228,-1321 137,-1321"/>
<text text-anchor="start" x="139" y="-1326.2" font-family="Times,serif" font-size="12.00" fill="#444444">parm_unit</text>
<polygon fill="#ffffff" stroke="transparent" points="137,-1303 137,-1321 228,-1321 228,-1303 137,-1303"/>
<text text-anchor="start" x="139" y="-1308.2" font-family="Times,serif" font-size="12.00" fill="#444444">mcl</text>
<polygon fill="#ffffff" stroke="transparent" points="137,-1285 137,-1303 228,-1303 228,-1285 137,-1285"/>
<text text-anchor="start" x="139" y="-1290.2" font-family="Times,serif" font-size="12.00" fill="#444444">hhbp_noncancer</text>
<polygon fill="#ffffff" stroke="transparent" points="137,-1267 137,-1285 228,-1285 228,-1267 137,-1267"/>
<text text-anchor="start" x="139" y="-1272.2" font-family="Times,serif" font-size="12.00" fill="#444444">hhbp_cancer_min</text>
<polygon fill="#ffffff" stroke="transparent" points="137,-1249 137,-1267 228,-1267 228,-1249 137,-1249"/>
<text text-anchor="start" x="138.5182" y="-1254.2" font-family="Times,serif" font-size="12.00" fill="#444444">hhbp_cancer_max</text>
<polygon fill="#ffffff" stroke="transparent" points="137,-1231 137,-1249 228,-1249 228,-1231 137,-1231"/>
<text text-anchor="start" x="139" y="-1236.2" font-family="Times,serif" font-size="12.00" fill="#444444">hbsl_noncancer</text>
<polygon fill="#ffffff" stroke="transparent" points="137,-1213 137,-1231 228,-1231 228,-1213 137,-1213"/>
<text text-anchor="start" x="139" y="-1218.2" font-family="Times,serif" font-size="12.00" fill="#444444">hbsl_cancer_min</text>
<polygon fill="#ffffff" stroke="transparent" points="137,-1195 137,-1213 228,-1213 228,-1195 137,-1195"/>
<text text-anchor="start" x="139" y="-1200.2" font-family="Times,serif" font-size="12.00" fill="#444444">hbsl_cancer_max</text>
<polygon fill="#ffffff" stroke="transparent" points="137,-1177 137,-1195 228,-1195 228,-1177 137,-1177"/>
<text text-anchor="start" x="139" y="-1182.2" font-family="Times,serif" font-size="12.00" fill="#444444">remark</text>
<polygon fill="none" stroke="#555555" points="135.5,-1176 135.5,-1394 228.5,-1394 228.5,-1176 135.5,-1176"/>
</g>
<!-- benchmarks&#45;&gt;parameters -->
<g id="benchmarks_1" class="edge">
<title>benchmarks:pcode&#45;&gt;parameters:pcode</title>
<path fill="none" stroke="#555555" d="M228,-1348C254.4134,-1348 263.3242,-1344.9101 285.4987,-1344.1618"/>
<polygon fill="#555555" stroke="#555555" points="285.5579,-1347.6614 295.5,-1344 285.4447,-1340.6623 285.5579,-1347.6614"/>
</g>
<!-- benchmarks&#45;&gt;units -->
<g id="benchmarks_2" class="edge">
<title>benchmarks:parm_unit&#45;&gt;units:parm_unit</title>
<path fill="none" stroke="#555555" d="M228,-1330C307.8084,-1330 231.6507,-1212.8192 294,-1163 334.2684,-1130.8242 358.1866,-1142.2226 406.2166,-1143.8256"/>
<polygon fill="#555555" stroke="#555555" points="406.4421,-1147.3299 416.5,-1144 406.5608,-1140.3309 406.4421,-1147.3299"/>
</g>
<!-- cities -->
<g id="cities" class="node">
<title>cities</title>
<polygon fill="#efebdd" stroke="transparent" points="3,-1069 3,-1087 52,-1087 52,-1069 3,-1069"/>
<text text-anchor="start" x="14.8376" y="-1074.2" font-family="Times,serif" font-size="12.00" fill="#000000">cities</text>
<polygon fill="#ffffff" stroke="transparent" points="3,-1051 3,-1069 52,-1069 52,-1051 3,-1051"/>
<text text-anchor="start" x="5" y="-1056.2" font-family="Times,serif" font-size="12.00" fill="#444444">name</text>
<polygon fill="#ffffff" stroke="transparent" points="3,-1033 3,-1051 52,-1051 52,-1033 3,-1033"/>
<text text-anchor="start" x="5" y="-1039.2" font-family="Times,serif" text-decoration="underline" font-size="12.00" fill="#444444">id</text>
<polygon fill="#ffffff" stroke="transparent" points="3,-1015 3,-1033 52,-1033 52,-1015 3,-1015"/>
<text text-anchor="start" x="4.841" y="-1020.2" font-family="Times,serif" font-size="12.00" fill="#444444">geometry</text>
<polygon fill="none" stroke="#555555" points="1.5,-1014 1.5,-1088 52.5,-1088 52.5,-1014 1.5,-1014"/>
</g>
<!-- counties -->
<g id="counties" class="node">
<title>counties</title>
<polygon fill="#efebdd" stroke="transparent" points="3,-939 3,-957 52,-957 52,-939 3,-939"/>
<text text-anchor="start" x="7.505" y="-944.2" font-family="Times,serif" font-size="12.00" fill="#000000">counties</text>
<polygon fill="#ffffff" stroke="transparent" points="3,-921 3,-939 52,-939 52,-921 3,-921"/>
<text text-anchor="start" x="5" y="-926.2" font-family="Times,serif" font-size="12.00" fill="#444444">name</text>
<polygon fill="#ffffff" stroke="transparent" points="3,-903 3,-921 52,-921 52,-903 3,-903"/>
<text text-anchor="start" x="5" y="-909.2" font-family="Times,serif" text-decoration="underline" font-size="12.00" fill="#444444">id</text>
<polygon fill="#ffffff" stroke="transparent" points="3,-885 3,-903 52,-903 52,-885 3,-885"/>
<text text-anchor="start" x="4.841" y="-890.2" font-family="Times,serif" font-size="12.00" fill="#444444">geometry</text>
<polygon fill="none" stroke="#555555" points="1.5,-884 1.5,-958 52.5,-958 52.5,-884 1.5,-884"/>
</g>
<!-- dl -->
<g id="dl" class="node">
<title>dl</title>
<polygon fill="#efebdd" stroke="transparent" points="143,-1139 143,-1157 221,-1157 221,-1139 143,-1139"/>
<text text-anchor="start" x="177.3326" y="-1144.2" font-family="Times,serif" font-size="12.00" fill="#000000">dl</text>
<polygon fill="#ffffff" stroke="transparent" points="143,-1121 143,-1139 221,-1139 221,-1121 143,-1121"/>
<text text-anchor="start" x="145" y="-1126.2" font-family="Times,serif" font-size="12.00" fill="#444444">srsname</text>
<polygon fill="#ffffff" stroke="transparent" points="143,-1103 143,-1121 221,-1121 221,-1103 143,-1103"/>
<text text-anchor="start" x="145" y="-1108.2" font-family="Times,serif" font-size="12.00" fill="#444444">pcode</text>
<polygon fill="#ffffff" stroke="transparent" points="143,-1085 143,-1103 221,-1103 221,-1085 143,-1085"/>
<text text-anchor="start" x="145" y="-1090.2" font-family="Times,serif" font-size="12.00" fill="#444444">parm_unit</text>
<polygon fill="#ffffff" stroke="transparent" points="143,-1067 143,-1085 221,-1085 221,-1067 143,-1067"/>
<text text-anchor="start" x="144.6728" y="-1072.2" font-family="Times,serif" font-size="12.00" fill="#444444">lab_det_lim_va</text>
<polygon fill="#ffffff" stroke="transparent" points="143,-1049 143,-1067 221,-1067 221,-1049 143,-1049"/>
<text text-anchor="start" x="145" y="-1054.2" font-family="Times,serif" font-size="12.00" fill="#444444">sdate</text>
<polygon fill="#ffffff" stroke="transparent" points="143,-1031 143,-1049 221,-1049 221,-1031 143,-1031"/>
<text text-anchor="start" x="145" y="-1036.2" font-family="Times,serif" font-size="12.00" fill="#444444">reference</text>
<polygon fill="#ffffff" stroke="transparent" points="143,-1013 143,-1031 221,-1031 221,-1013 143,-1013"/>
<text text-anchor="start" x="145" y="-1019.2" font-family="Times,serif" text-decoration="underline" font-size="12.00" fill="#444444">pcode, sdate</text>
<polygon fill="none" stroke="#555555" points="142,-1012 142,-1158 222,-1158 222,-1012 142,-1012"/>
</g>
<!-- dl&#45;&gt;parameters -->
<g id="dl_1" class="edge">
<title>dl:pcode&#45;&gt;parameters:pcode</title>
<path fill="none" stroke="#555555" d="M221,-1112C250.461,-1112 246.5143,-1139.8702 258,-1167 272.2667,-1200.6985 258.3216,-1319.6792 286.0147,-1340.7866"/>
<polygon fill="#555555" stroke="#555555" points="284.9057,-1344.1062 295.5,-1344 287.1518,-1337.4763 284.9057,-1344.1062"/>
</g>
<!-- dl&#45;&gt;units -->
<g id="dl_2" class="edge">
<title>dl:parm_unit&#45;&gt;units:parm_unit</title>
<path fill="none" stroke="#555555" d="M221,-1094C293.0219,-1094 309.9991,-1109.3592 379,-1130 392.1825,-1133.9434 396.7638,-1140.1617 406.3941,-1142.777"/>
<polygon fill="#555555" stroke="#555555" points="406.1519,-1146.2731 416.5,-1144 406.993,-1139.3238 406.1519,-1146.2731"/>
</g>
<!-- esrp -->
<g id="esrp" class="node">
<title>esrp</title>
<polygon fill="#efebdd" stroke="transparent" points="3,-825 3,-843 52,-843 52,-825 3,-825"/>
<text text-anchor="start" x="17.5058" y="-830.2" font-family="Times,serif" font-size="12.00" fill="#000000">esrp</text>
<polygon fill="#ffffff" stroke="transparent" points="3,-807 3,-825 52,-825 52,-807 3,-807"/>
<text text-anchor="start" x="4.841" y="-812.2" font-family="Times,serif" font-size="12.00" fill="#444444">geometry</text>
<polygon fill="none" stroke="#555555" points="1.5,-806 1.5,-844 52.5,-844 52.5,-806 1.5,-806"/>
</g>
<!-- facilities -->
<g id="facilities" class="node">
<title>facilities</title>
<polygon fill="#efebdd" stroke="transparent" points="419,-809 419,-827 468,-827 468,-809 419,-809"/>
<text text-anchor="start" x="422.842" y="-814.2" font-family="Times,serif" font-size="12.00" fill="#000000">facilities</text>
<polygon fill="#ffffff" stroke="transparent" points="419,-791 419,-809 468,-809 468,-791 419,-791"/>
<text text-anchor="start" x="421" y="-796.2" font-family="Times,serif" font-size="12.00" fill="#444444">name</text>
<polygon fill="#ffffff" stroke="transparent" points="419,-773 419,-791 468,-791 468,-773 419,-773"/>
<text text-anchor="start" x="421" y="-779.2" font-family="Times,serif" text-decoration="underline" font-size="12.00" fill="#444444">id</text>
<polygon fill="#ffffff" stroke="transparent" points="419,-755 419,-773 468,-773 468,-755 419,-755"/>
<text text-anchor="start" x="420.841" y="-760.2" font-family="Times,serif" font-size="12.00" fill="#444444">geometry</text>
<polygon fill="none" stroke="#555555" points="417.5,-754 417.5,-828 468.5,-828 468.5,-754 417.5,-754"/>
</g>
<!-- gwl -->
<g id="gwl" class="node">
<title>gwl</title>
<polygon fill="#efebdd" stroke="transparent" points="111,-487 111,-505 253,-505 253,-487 111,-487"/>
<text text-anchor="start" x="173.0012" y="-492.2" font-family="Times,serif" font-size="12.00" fill="#000000">gwl</text>
<polygon fill="#ffffff" stroke="transparent" points="111,-469 111,-487 253,-487 253,-469 111,-469"/>
<text text-anchor="start" x="113" y="-474.2" font-family="Times,serif" font-size="12.00" fill="#444444">site_nm</text>
<polygon fill="#ffffff" stroke="transparent" points="111,-451 111,-469 253,-469 253,-451 111,-451"/>
<text text-anchor="start" x="113" y="-456.2" font-family="Times,serif" font-size="12.00" fill="#444444">site_no</text>
<polygon fill="#ffffff" stroke="transparent" points="111,-433 111,-451 253,-451 253,-433 111,-433"/>
<text text-anchor="start" x="113" y="-438.2" font-family="Times,serif" font-size="12.00" fill="#444444">lev_dt</text>
<polygon fill="#ffffff" stroke="transparent" points="111,-415 111,-433 253,-433 253,-415 111,-415"/>
<text text-anchor="start" x="113" y="-420.2" font-family="Times,serif" font-size="12.00" fill="#444444">lev_meth_cd</text>
<polygon fill="#ffffff" stroke="transparent" points="111,-397 111,-415 253,-415 253,-397 111,-397"/>
<text text-anchor="start" x="113" y="-402.2" font-family="Times,serif" font-size="12.00" fill="#444444">lev_status_cd</text>
<polygon fill="#ffffff" stroke="transparent" points="111,-379 111,-397 253,-397 253,-379 111,-379"/>
<text text-anchor="start" x="113" y="-384.2" font-family="Times,serif" font-size="12.00" fill="#444444">lev_age_cd</text>
<polygon fill="#ffffff" stroke="transparent" points="111,-361 111,-379 253,-379 253,-361 111,-361"/>
<text text-anchor="start" x="113" y="-366.2" font-family="Times,serif" font-size="12.00" fill="#444444">lev_va</text>
<polygon fill="#ffffff" stroke="transparent" points="111,-343 111,-361 253,-361 253,-343 111,-343"/>
<text text-anchor="start" x="113" y="-348.2" font-family="Times,serif" font-size="12.00" fill="#444444">sl_lev_va</text>
<polygon fill="#ffffff" stroke="transparent" points="111,-325 111,-343 253,-343 253,-325 111,-325"/>
<text text-anchor="start" x="113" y="-330.2" font-family="Times,serif" font-size="12.00" fill="#444444">lev_acy_va</text>
<polygon fill="#ffffff" stroke="transparent" points="111,-307 111,-325 253,-325 253,-307 111,-307"/>
<text text-anchor="start" x="113" y="-312.2" font-family="Times,serif" font-size="12.00" fill="#444444">sl_lev_acy_va</text>
<polygon fill="#ffffff" stroke="transparent" points="111,-289 111,-307 253,-307 253,-289 111,-289"/>
<text text-anchor="start" x="112.6778" y="-295.2" font-family="Times,serif" text-decoration="underline" font-size="12.00" fill="#444444">site_no, lev_dt, lev_meth_cd</text>
<polygon fill="none" stroke="#555555" points="110,-288 110,-506 254,-506 254,-288 110,-288"/>
</g>
<!-- sites -->
<g id="sites" class="node">
<title>sites</title>
<polygon fill="#efebdd" stroke="transparent" points="297.5,-469 297.5,-487 375.5,-487 375.5,-469 297.5,-469"/>
<text text-anchor="start" x="325.835" y="-474.2" font-family="Times,serif" font-size="12.00" fill="#000000">sites</text>
<polygon fill="#ffffff" stroke="transparent" points="297.5,-451 297.5,-469 375.5,-469 375.5,-451 297.5,-451"/>
<text text-anchor="start" x="299.5" y="-457.2" font-family="Times,serif" text-decoration="underline" font-size="12.00" fill="#444444">site_no</text>
<polygon fill="#ffffff" stroke="transparent" points="297.5,-433 297.5,-451 375.5,-451 375.5,-433 297.5,-433"/>
<text text-anchor="start" x="299.5" y="-438.2" font-family="Times,serif" font-size="12.00" fill="#444444">site_nm</text>
<polygon fill="#ffffff" stroke="transparent" points="297.5,-415 297.5,-433 375.5,-433 375.5,-415 297.5,-415"/>
<text text-anchor="start" x="299.5" y="-420.2" font-family="Times,serif" font-size="12.00" fill="#444444">station_nm</text>
<polygon fill="#ffffff" stroke="transparent" points="297.5,-397 297.5,-415 375.5,-415 375.5,-397 297.5,-397"/>
<text text-anchor="start" x="299.1776" y="-402.2" font-family="Times,serif" font-size="12.00" fill="#444444">coord_meth_cd</text>
<polygon fill="#ffffff" stroke="transparent" points="297.5,-379 297.5,-397 375.5,-397 375.5,-379 297.5,-379"/>
<text text-anchor="start" x="299.5" y="-384.2" font-family="Times,serif" font-size="12.00" fill="#444444">coord_acy_va</text>
<polygon fill="#ffffff" stroke="transparent" points="297.5,-361 297.5,-379 375.5,-379 375.5,-361 297.5,-361"/>
<text text-anchor="start" x="299.5" y="-366.2" font-family="Times,serif" font-size="12.00" fill="#444444">alt_va</text>
<polygon fill="#ffffff" stroke="transparent" points="297.5,-343 297.5,-361 375.5,-361 375.5,-343 297.5,-343"/>
<text text-anchor="start" x="299.5" y="-348.2" font-family="Times,serif" font-size="12.00" fill="#444444">alt_meth_cd</text>
<polygon fill="#ffffff" stroke="transparent" points="297.5,-325 297.5,-343 375.5,-343 375.5,-325 297.5,-325"/>
<text text-anchor="start" x="299.5" y="-330.2" font-family="Times,serif" font-size="12.00" fill="#444444">alt_acy_va</text>
<polygon fill="#ffffff" stroke="transparent" points="297.5,-307 297.5,-325 375.5,-325 375.5,-307 297.5,-307"/>
<text text-anchor="start" x="299.5" y="-312.2" font-family="Times,serif" font-size="12.00" fill="#444444">huc_cd</text>
<polygon fill="#ffffff" stroke="transparent" points="297.5,-289 297.5,-307 375.5,-307 375.5,-289 297.5,-289"/>
<text text-anchor="start" x="299.1728" y="-294.2" font-family="Times,serif" font-size="12.00" fill="#444444">construction_dt</text>
<polygon fill="#ffffff" stroke="transparent" points="297.5,-271 297.5,-289 375.5,-289 375.5,-271 297.5,-271"/>
<text text-anchor="start" x="299.5" y="-276.2" font-family="Times,serif" font-size="12.00" fill="#444444">reliability_cd</text>
<polygon fill="#ffffff" stroke="transparent" points="297.5,-253 297.5,-271 375.5,-271 375.5,-253 297.5,-253"/>
<text text-anchor="start" x="299.5" y="-258.2" font-family="Times,serif" font-size="12.00" fill="#444444">nat_aqfr_cd</text>
<polygon fill="#ffffff" stroke="transparent" points="297.5,-235 297.5,-253 375.5,-253 375.5,-235 297.5,-235"/>
<text text-anchor="start" x="299.5" y="-240.2" font-family="Times,serif" font-size="12.00" fill="#444444">aqfr_cd</text>
<polygon fill="#ffffff" stroke="transparent" points="297.5,-217 297.5,-235 375.5,-235 375.5,-217 297.5,-217"/>
<text text-anchor="start" x="299.5" y="-222.2" font-family="Times,serif" font-size="12.00" fill="#444444">aqfr_type_cd</text>
<polygon fill="#ffffff" stroke="transparent" points="297.5,-199 297.5,-217 375.5,-217 375.5,-199 297.5,-199"/>
<text text-anchor="start" x="299.5" y="-204.2" font-family="Times,serif" font-size="12.00" fill="#444444">well_depth_va</text>
<polygon fill="#ffffff" stroke="transparent" points="297.5,-181 297.5,-199 375.5,-199 375.5,-181 297.5,-181"/>
<text text-anchor="start" x="299.5" y="-186.2" font-family="Times,serif" font-size="12.00" fill="#444444">hole_depth_va</text>
<polygon fill="#ffffff" stroke="transparent" points="297.5,-163 297.5,-181 375.5,-181 375.5,-163 297.5,-163"/>
<text text-anchor="start" x="299.5" y="-168.2" font-family="Times,serif" font-size="12.00" fill="#444444">depth_src_cd</text>
<polygon fill="#ffffff" stroke="transparent" points="297.5,-145 297.5,-163 375.5,-163 375.5,-145 297.5,-145"/>
<text text-anchor="start" x="299.5" y="-150.2" font-family="Times,serif" font-size="12.00" fill="#444444">completion_cd</text>
<polygon fill="#ffffff" stroke="transparent" points="297.5,-127 297.5,-145 375.5,-145 375.5,-127 297.5,-127"/>
<text text-anchor="start" x="299.5" y="-132.2" font-family="Times,serif" font-size="12.00" fill="#444444">network_cd</text>
<polygon fill="#ffffff" stroke="transparent" points="297.5,-109 297.5,-127 375.5,-127 375.5,-109 297.5,-109"/>
<text text-anchor="start" x="299.5" y="-114.2" font-family="Times,serif" font-size="12.00" fill="#444444">pos</text>
<polygon fill="#ffffff" stroke="transparent" points="297.5,-91 297.5,-109 375.5,-109 375.5,-91 297.5,-91"/>
<text text-anchor="start" x="299.5" y="-96.2" font-family="Times,serif" font-size="12.00" fill="#444444">min_dt</text>
<polygon fill="#ffffff" stroke="transparent" points="297.5,-73 297.5,-91 375.5,-91 375.5,-73 297.5,-73"/>
<text text-anchor="start" x="299.5" y="-78.2" font-family="Times,serif" font-size="12.00" fill="#444444">max_dt</text>
<polygon fill="#ffffff" stroke="transparent" points="297.5,-55 297.5,-73 375.5,-73 375.5,-55 297.5,-55"/>
<text text-anchor="start" x="299.5" y="-60.2" font-family="Times,serif" font-size="12.00" fill="#444444">nmeas</text>
<polygon fill="#ffffff" stroke="transparent" points="297.5,-37 297.5,-55 375.5,-55 375.5,-37 297.5,-37"/>
<text text-anchor="start" x="299.5" y="-42.2" font-family="Times,serif" font-size="12.00" fill="#444444">nsamples</text>
<polygon fill="#ffffff" stroke="transparent" points="297.5,-19 297.5,-37 375.5,-37 375.5,-19 297.5,-19"/>
<text text-anchor="start" x="299.5" y="-24.2" font-family="Times,serif" font-size="12.00" fill="#444444">nreps</text>
<polygon fill="#ffffff" stroke="transparent" points="297.5,-1 297.5,-19 375.5,-19 375.5,-1 297.5,-1"/>
<text text-anchor="start" x="299.5" y="-6.2" font-family="Times,serif" font-size="12.00" fill="#444444">geometry</text>
<polygon fill="none" stroke="#555555" points="296.5,0 296.5,-488 376.5,-488 376.5,0 296.5,0"/>
</g>
<!-- gwl&#45;&gt;sites -->
<g id="gwl_1" class="edge">
<title>gwl:site_no&#45;&gt;sites:site_no</title>
<path fill="none" stroke="#555555" d="M253,-460C268.9149,-460 275.225,-460 287.388,-460"/>
<polygon fill="#555555" stroke="#555555" points="287.5,-463.5001 297.5,-460 287.5,-456.5001 287.5,-463.5001"/>
</g>
<!-- idaho -->
<g id="idaho" class="node">
<title>idaho</title>
<polygon fill="#efebdd" stroke="transparent" points="419,-565 419,-583 468,-583 468,-565 419,-565"/>
<text text-anchor="start" x="430.1692" y="-570.2" font-family="Times,serif" font-size="12.00" fill="#000000">idaho</text>
<polygon fill="#ffffff" stroke="transparent" points="419,-547 419,-565 468,-565 468,-547 419,-547"/>
<text text-anchor="start" x="420.841" y="-552.2" font-family="Times,serif" font-size="12.00" fill="#444444">geometry</text>
<polygon fill="none" stroke="#555555" points="417.5,-546 417.5,-584 468.5,-584 468.5,-546 417.5,-546"/>
</g>
<!-- inl -->
<g id="inl" class="node">
<title>inl</title>
<polygon fill="#efebdd" stroke="transparent" points="315,-565 315,-583 364,-583 364,-565 315,-565"/>
<text text-anchor="start" x="333.1652" y="-570.2" font-family="Times,serif" font-size="12.00" fill="#000000">inl</text>
<polygon fill="#ffffff" stroke="transparent" points="315,-547 315,-565 364,-565 364,-547 315,-547"/>
<text text-anchor="start" x="316.841" y="-552.2" font-family="Times,serif" font-size="12.00" fill="#444444">geometry</text>
<polygon fill="none" stroke="#555555" points="313.5,-546 313.5,-584 364.5,-584 364.5,-546 313.5,-546"/>
</g>
<!-- iwd -->
<g id="iwd" class="node">
<title>iwd</title>
<polygon fill="#efebdd" stroke="transparent" points="471,-643 471,-661 520,-661 520,-643 471,-643"/>
<text text-anchor="start" x="486.5012" y="-648.2" font-family="Times,serif" font-size="12.00" fill="#000000">iwd</text>
<polygon fill="#ffffff" stroke="transparent" points="471,-625 471,-643 520,-643 520,-625 471,-625"/>
<text text-anchor="start" x="472.841" y="-630.2" font-family="Times,serif" font-size="12.00" fill="#444444">geometry</text>
<polygon fill="none" stroke="#555555" points="469.5,-624 469.5,-662 520.5,-662 520.5,-624 469.5,-624"/>
</g>
<!-- lakes -->
<g id="lakes" class="node">
<title>lakes</title>
<polygon fill="#efebdd" stroke="transparent" points="339,-993 339,-1011 391,-1011 391,-993 339,-993"/>
<text text-anchor="start" x="352.6724" y="-998.2" font-family="Times,serif" font-size="12.00" fill="#000000">lakes</text>
<polygon fill="#ffffff" stroke="transparent" points="339,-975 339,-993 391,-993 391,-975 339,-975"/>
<text text-anchor="start" x="341" y="-980.2" font-family="Times,serif" font-size="12.00" fill="#444444">gnis_nm</text>
<polygon fill="#ffffff" stroke="transparent" points="339,-957 339,-975 391,-975 391,-957 339,-957"/>
<text text-anchor="start" x="341" y="-963.2" font-family="Times,serif" text-decoration="underline" font-size="12.00" fill="#444444">id</text>
<polygon fill="#ffffff" stroke="transparent" points="339,-939 339,-957 391,-957 391,-939 339,-939"/>
<text text-anchor="start" x="341" y="-944.2" font-family="Times,serif" font-size="12.00" fill="#444444">reach_cd</text>
<polygon fill="#ffffff" stroke="transparent" points="339,-921 339,-939 391,-939 391,-921 339,-921"/>
<text text-anchor="start" x="341" y="-926.2" font-family="Times,serif" font-size="12.00" fill="#444444">gnis_id</text>
<polygon fill="#ffffff" stroke="transparent" points="339,-903 339,-921 391,-921 391,-903 339,-903"/>
<text text-anchor="start" x="340.6802" y="-908.2" font-family="Times,serif" font-size="12.00" fill="#444444">feature_tp</text>
<polygon fill="#ffffff" stroke="transparent" points="339,-885 339,-903 391,-903 391,-885 339,-885"/>
<text text-anchor="start" x="341" y="-890.2" font-family="Times,serif" font-size="12.00" fill="#444444">geometry</text>
<polygon fill="none" stroke="#555555" points="338,-884 338,-1012 392,-1012 392,-884 338,-884"/>
</g>
<!-- parameters&#45;&gt;units -->
<g id="parameters_1" class="edge">
<title>parameters:parm_unit&#45;&gt;units:parm_unit</title>
<path fill="none" stroke="#555555" d="M378.5,-1254C426.1829,-1254 374.2872,-1160.5161 406.411,-1145.9093"/>
<polygon fill="#555555" stroke="#555555" points="407.3252,-1149.2984 416.5,-1144 406.0236,-1142.4205 407.3252,-1149.2984"/>
</g>
<!-- percponds -->
<g id="percponds" class="node">
<title>percponds</title>
<polygon fill="#efebdd" stroke="transparent" points="326.5,-809 326.5,-827 379.5,-827 379.5,-809 326.5,-809"/>
<text text-anchor="start" x="328.3424" y="-814.2" font-family="Times,serif" font-size="12.00" fill="#000000">percponds</text>
<polygon fill="#ffffff" stroke="transparent" points="326.5,-791 326.5,-809 379.5,-809 379.5,-791 326.5,-791"/>
<text text-anchor="start" x="328.5" y="-796.2" font-family="Times,serif" font-size="12.00" fill="#444444">name</text>
<polygon fill="#ffffff" stroke="transparent" points="326.5,-773 326.5,-791 379.5,-791 379.5,-773 326.5,-773"/>
<text text-anchor="start" x="328.3388" y="-778.2" font-family="Times,serif" font-size="12.00" fill="#444444">facility_id</text>
<polygon fill="#ffffff" stroke="transparent" points="326.5,-755 326.5,-773 379.5,-773 379.5,-755 326.5,-755"/>
<text text-anchor="start" x="328.5" y="-760.2" font-family="Times,serif" font-size="12.00" fill="#444444">geometry</text>
<polygon fill="none" stroke="#555555" points="325,-754 325,-828 380,-828 380,-754 325,-754"/>
</g>
<!-- percponds&#45;&gt;facilities -->
<g id="percponds_1" class="edge">
<title>percponds:facility_id&#45;&gt;facilities:id</title>
<path fill="none" stroke="#555555" d="M379.5,-782C393.0781,-782 398.7799,-782 408.789,-782"/>
<polygon fill="#555555" stroke="#555555" points="409,-785.5001 419,-782 409,-778.5001 409,-785.5001"/>
</g>
<!-- roads -->
<g id="roads" class="node">
<title>roads</title>
<polygon fill="#efebdd" stroke="transparent" points="367,-697 367,-715 416,-715 416,-697 367,-697"/>
<text text-anchor="start" x="378.5058" y="-702.2" font-family="Times,serif" font-size="12.00" fill="#000000">roads</text>
<polygon fill="#ffffff" stroke="transparent" points="367,-679 367,-697 416,-697 416,-679 367,-679"/>
<text text-anchor="start" x="369" y="-684.2" font-family="Times,serif" font-size="12.00" fill="#444444">name</text>
<polygon fill="#ffffff" stroke="transparent" points="367,-661 367,-679 416,-679 416,-661 367,-661"/>
<text text-anchor="start" x="369" y="-667.2" font-family="Times,serif" text-decoration="underline" font-size="12.00" fill="#444444">id</text>
<polygon fill="#ffffff" stroke="transparent" points="367,-643 367,-661 416,-661 416,-643 367,-643"/>
<text text-anchor="start" x="369" y="-648.2" font-family="Times,serif" font-size="12.00" fill="#444444">prisec_fl</text>
<polygon fill="#ffffff" stroke="transparent" points="367,-625 367,-643 416,-643 416,-625 367,-625"/>
<text text-anchor="start" x="368.841" y="-630.2" font-family="Times,serif" font-size="12.00" fill="#444444">geometry</text>
<polygon fill="none" stroke="#555555" points="365.5,-624 365.5,-716 416.5,-716 416.5,-624 365.5,-624"/>
</g>
<!-- samples -->
<g id="samples" class="node">
<title>samples</title>
<polygon fill="#efebdd" stroke="transparent" points="107,-975 107,-993 257,-993 257,-975 107,-975"/>
<text text-anchor="start" x="162.6716" y="-980.2" font-family="Times,serif" font-size="12.00" fill="#000000">samples</text>
<polygon fill="#ffffff" stroke="transparent" points="107,-957 107,-975 257,-975 257,-957 107,-957"/>
<text text-anchor="start" x="109" y="-962.2" font-family="Times,serif" font-size="12.00" fill="#444444">site_nm</text>
<polygon fill="#ffffff" stroke="transparent" points="107,-939 107,-957 257,-957 257,-939 107,-939"/>
<text text-anchor="start" x="109" y="-944.2" font-family="Times,serif" font-size="12.00" fill="#444444">sample_dt</text>
<polygon fill="#ffffff" stroke="transparent" points="107,-921 107,-939 257,-939 257,-921 107,-921"/>
<text text-anchor="start" x="109" y="-926.2" font-family="Times,serif" font-size="12.00" fill="#444444">parm_short_nm</text>
<polygon fill="#ffffff" stroke="transparent" points="107,-903 107,-921 257,-921 257,-903 107,-903"/>
<text text-anchor="start" x="109" y="-908.2" font-family="Times,serif" font-size="12.00" fill="#444444">parm_unit</text>
<polygon fill="#ffffff" stroke="transparent" points="107,-885 107,-903 257,-903 257,-885 107,-885"/>
<text text-anchor="start" x="109" y="-890.2" font-family="Times,serif" font-size="12.00" fill="#444444">remark_cd</text>
<polygon fill="#ffffff" stroke="transparent" points="107,-867 107,-885 257,-885 257,-867 107,-867"/>
<text text-anchor="start" x="109" y="-872.2" font-family="Times,serif" font-size="12.00" fill="#444444">result_va</text>
<polygon fill="#ffffff" stroke="transparent" points="107,-849 107,-867 257,-867 257,-849 107,-849"/>
<text text-anchor="start" x="109" y="-854.2" font-family="Times,serif" font-size="12.00" fill="#444444">lab_sd_va</text>
<polygon fill="#ffffff" stroke="transparent" points="107,-831 107,-849 257,-849 257,-831 107,-831"/>
<text text-anchor="start" x="109" y="-836.2" font-family="Times,serif" font-size="12.00" fill="#444444">lab_li_va</text>
<polygon fill="#ffffff" stroke="transparent" points="107,-813 107,-831 257,-831 257,-813 107,-813"/>
<text text-anchor="start" x="109" y="-818.2" font-family="Times,serif" font-size="12.00" fill="#444444">lab_ui_va</text>
<polygon fill="#ffffff" stroke="transparent" points="107,-795 107,-813 257,-813 257,-795 107,-795"/>
<text text-anchor="start" x="109" y="-800.2" font-family="Times,serif" font-size="12.00" fill="#444444">rpt_lev_va</text>
<polygon fill="#ffffff" stroke="transparent" points="107,-777 107,-795 257,-795 257,-777 107,-777"/>
<text text-anchor="start" x="109" y="-782.2" font-family="Times,serif" font-size="12.00" fill="#444444">rpt_lev_cd</text>
<polygon fill="#ffffff" stroke="transparent" points="107,-759 107,-777 257,-777 257,-759 107,-759"/>
<text text-anchor="start" x="109" y="-764.2" font-family="Times,serif" font-size="12.00" fill="#444444">medium_cd</text>
<polygon fill="#ffffff" stroke="transparent" points="107,-741 107,-759 257,-759 257,-741 107,-741"/>
<text text-anchor="start" x="109" y="-746.2" font-family="Times,serif" font-size="12.00" fill="#444444">anl_ent_cd</text>
<polygon fill="#ffffff" stroke="transparent" points="107,-723 107,-741 257,-741 257,-723 107,-723"/>
<text text-anchor="start" x="109" y="-728.2" font-family="Times,serif" font-size="12.00" fill="#444444">dqi_cd</text>
<polygon fill="#ffffff" stroke="transparent" points="107,-705 107,-723 257,-723 257,-705 107,-705"/>
<text text-anchor="start" x="109" y="-710.2" font-family="Times,serif" font-size="12.00" fill="#444444">meth_cd</text>
<polygon fill="#ffffff" stroke="transparent" points="107,-687 107,-705 257,-705 257,-687 107,-687"/>
<text text-anchor="start" x="109" y="-692.2" font-family="Times,serif" font-size="12.00" fill="#444444">sample_type_cd</text>
<polygon fill="#ffffff" stroke="transparent" points="107,-669 107,-687 257,-687 257,-669 107,-669"/>
<text text-anchor="start" x="109" y="-674.2" font-family="Times,serif" font-size="12.00" fill="#444444">db_no</text>
<polygon fill="#ffffff" stroke="transparent" points="107,-651 107,-669 257,-669 257,-651 107,-651"/>
<text text-anchor="start" x="109" y="-656.2" font-family="Times,serif" font-size="12.00" fill="#444444">sample_id</text>
<polygon fill="#ffffff" stroke="transparent" points="107,-633 107,-651 257,-651 257,-633 107,-633"/>
<text text-anchor="start" x="109" y="-638.2" font-family="Times,serif" font-size="12.00" fill="#444444">site_no</text>
<polygon fill="#ffffff" stroke="transparent" points="107,-615 107,-633 257,-633 257,-615 107,-615"/>
<text text-anchor="start" x="109" y="-620.2" font-family="Times,serif" font-size="12.00" fill="#444444">pcode</text>
<polygon fill="#ffffff" stroke="transparent" points="107,-597 107,-615 257,-615 257,-597 107,-597"/>
<text text-anchor="start" x="109" y="-602.2" font-family="Times,serif" font-size="12.00" fill="#444444">rep_pair_id</text>
<polygon fill="#ffffff" stroke="transparent" points="107,-579 107,-597 257,-597 257,-579 107,-579"/>
<text text-anchor="start" x="109" y="-584.2" font-family="Times,serif" font-size="12.00" fill="#444444">result_tx</text>
<polygon fill="#ffffff" stroke="transparent" points="107,-561 107,-579 257,-579 257,-561 107,-561"/>
<text text-anchor="start" x="109" y="-566.2" font-family="Times,serif" font-size="12.00" fill="#444444">remark</text>
<polygon fill="#ffffff" stroke="transparent" points="107,-543 107,-561 257,-561 257,-543 107,-543"/>
<text text-anchor="start" x="109" y="-548.2" font-family="Times,serif" font-size="12.00" fill="#444444">anl_dt</text>
<polygon fill="#ffffff" stroke="transparent" points="107,-525 107,-543 257,-543 257,-525 107,-525"/>
<text text-anchor="start" x="108.6818" y="-531.2" font-family="Times,serif" text-decoration="underline" font-size="12.00" fill="#444444">sample_id, pcode, medium_cd</text>
<polygon fill="none" stroke="#555555" points="106,-524 106,-994 258,-994 258,-524 106,-524"/>
</g>
<!-- samples&#45;&gt;parameters -->
<g id="samples_1" class="edge">
<title>samples:pcode&#45;&gt;parameters:pcode</title>
<path fill="none" stroke="#555555" d="M257,-624C333.6719,-624 225.4741,-1283.4543 286.2587,-1340.1262"/>
<polygon fill="#555555" stroke="#555555" points="284.9244,-1343.3619 295.5,-1344 287.6306,-1336.9061 284.9244,-1343.3619"/>
</g>
<!-- samples&#45;&gt;sites -->
<g id="samples_2" class="edge">
<title>samples:site_no&#45;&gt;sites:site_no</title>
<path fill="none" stroke="#555555" d="M257,-642C336.1449,-642 225.4642,-475.9843 287.5544,-461.0688"/>
<polygon fill="#555555" stroke="#555555" points="287.9313,-464.5486 297.5,-460 287.1832,-457.5886 287.9313,-464.5486"/>
</g>
<!-- samples&#45;&gt;units -->
<g id="samples_3" class="edge">
<title>samples:parm_unit&#45;&gt;units:parm_unit</title>
<path fill="none" stroke="#555555" d="M257,-912C271.0525,-912 375.9759,-1099.2681 408.4866,-1137.3069"/>
<polygon fill="#555555" stroke="#555555" points="406.5813,-1140.2758 416.5,-1144 411.0686,-1134.9032 406.5813,-1140.2758"/>
</g>
<!-- streams -->
<g id="streams" class="node">
<title>streams</title>
<polygon fill="#efebdd" stroke="transparent" points="443,-993 443,-1011 495,-1011 495,-993 443,-993"/>
<text text-anchor="start" x="450.6742" y="-998.2" font-family="Times,serif" font-size="12.00" fill="#000000">streams</text>
<polygon fill="#ffffff" stroke="transparent" points="443,-975 443,-993 495,-993 495,-975 443,-975"/>
<text text-anchor="start" x="445" y="-980.2" font-family="Times,serif" font-size="12.00" fill="#444444">gnis_nm</text>
<polygon fill="#ffffff" stroke="transparent" points="443,-957 443,-975 495,-975 495,-957 443,-957"/>
<text text-anchor="start" x="445" y="-963.2" font-family="Times,serif" text-decoration="underline" font-size="12.00" fill="#444444">id</text>
<polygon fill="#ffffff" stroke="transparent" points="443,-939 443,-957 495,-957 495,-939 443,-939"/>
<text text-anchor="start" x="445" y="-944.2" font-family="Times,serif" font-size="12.00" fill="#444444">reach_cd</text>
<polygon fill="#ffffff" stroke="transparent" points="443,-921 443,-939 495,-939 495,-921 443,-921"/>
<text text-anchor="start" x="445" y="-926.2" font-family="Times,serif" font-size="12.00" fill="#444444">gnis_id</text>
<polygon fill="#ffffff" stroke="transparent" points="443,-903 443,-921 495,-921 495,-903 443,-903"/>
<text text-anchor="start" x="444.6802" y="-908.2" font-family="Times,serif" font-size="12.00" fill="#444444">feature_tp</text>
<polygon fill="#ffffff" stroke="transparent" points="443,-885 443,-903 495,-903 495,-885 443,-885"/>
<text text-anchor="start" x="445" y="-890.2" font-family="Times,serif" font-size="12.00" fill="#444444">geometry</text>
<polygon fill="none" stroke="#555555" points="442,-884 442,-1012 496,-1012 496,-884 442,-884"/>
</g>
<!-- swm -->
<g id="swm" class="node">
<title>swm</title>
<polygon fill="#efebdd" stroke="transparent" points="140,-251 140,-269 224,-269 224,-251 140,-251"/>
<text text-anchor="start" x="170.6678" y="-256.2" font-family="Times,serif" font-size="12.00" fill="#000000">swm</text>
<polygon fill="#ffffff" stroke="transparent" points="140,-233 140,-251 224,-251 224,-233 140,-233"/>
<text text-anchor="start" x="142" y="-238.2" font-family="Times,serif" font-size="12.00" fill="#444444">site_nm</text>
<polygon fill="#ffffff" stroke="transparent" points="140,-215 140,-233 224,-233 224,-215 140,-215"/>
<text text-anchor="start" x="142" y="-220.2" font-family="Times,serif" font-size="12.00" fill="#444444">site_no</text>
<polygon fill="#ffffff" stroke="transparent" points="140,-197 140,-215 224,-215 224,-197 140,-197"/>
<text text-anchor="start" x="142" y="-202.2" font-family="Times,serif" font-size="12.00" fill="#444444">stage_dt</text>
<polygon fill="#ffffff" stroke="transparent" points="140,-179 140,-197 224,-197 224,-179 140,-179"/>
<text text-anchor="start" x="142" y="-184.2" font-family="Times,serif" font-size="12.00" fill="#444444">stage_va</text>
<polygon fill="#ffffff" stroke="transparent" points="140,-161 140,-179 224,-179 224,-161 140,-161"/>
<text text-anchor="start" x="142" y="-166.2" font-family="Times,serif" font-size="12.00" fill="#444444">disch_va</text>
<polygon fill="#ffffff" stroke="transparent" points="140,-143 140,-161 224,-161 224,-143 140,-143"/>
<text text-anchor="start" x="142" y="-148.2" font-family="Times,serif" font-size="12.00" fill="#444444">stage_acy_va</text>
<polygon fill="#ffffff" stroke="transparent" points="140,-125 140,-143 224,-143 224,-125 140,-125"/>
<text text-anchor="start" x="142" y="-130.2" font-family="Times,serif" font-size="12.00" fill="#444444">disch_acy_va</text>
<polygon fill="#ffffff" stroke="transparent" points="140,-107 140,-125 224,-125 224,-107 140,-107"/>
<text text-anchor="start" x="141.6734" y="-113.2" font-family="Times,serif" text-decoration="underline" font-size="12.00" fill="#444444">site_no, stage_dt</text>
<polygon fill="none" stroke="#555555" points="139,-106 139,-270 225,-270 225,-106 139,-106"/>
</g>
<!-- swm&#45;&gt;sites -->
<g id="swm_1" class="edge">
<title>swm:site_no&#45;&gt;sites:site_no</title>
<path fill="none" stroke="#555555" d="M224,-224C252.7381,-224 247.2265,-252.3578 258,-279 272.047,-313.7375 259.1416,-435.1795 287.7489,-456.7207"/>
<polygon fill="#555555" stroke="#555555" points="286.906,-460.1298 297.5,-460 289.1373,-453.4949 286.906,-460.1298"/>
</g>
</g>
</svg>
